<svg width="148" height="41" viewBox="0 0 148 41" fill="none" xmlns="http://www.w3.org/2000/svg">
<path d="M23.4536 18.9705C23.417 14.6047 27.0267 12.4828 27.1852 12.3852C25.1365 9.40967 21.9658 8.99504 20.8561 8.95846C18.1976 8.67798 15.6123 10.556 14.2586 10.556C12.8806 10.556 10.7831 8.99504 8.53922 9.03163C5.64903 9.08041 2.92957 10.7511 1.45398 13.3608C-1.60693 18.6656 0.673511 26.4703 3.61248 30.7629C5.08806 32.8604 6.79535 35.2141 9.0514 35.1287C11.2465 35.0433 12.0757 33.7263 14.722 33.7263C17.3561 33.7263 18.1244 35.1287 20.417 35.0799C22.7829 35.0433 24.2584 32.9702 25.6852 30.8483C27.3803 28.4459 28.0632 26.0679 28.0876 25.9459C28.0267 25.9216 23.5023 24.1899 23.4536 18.9705Z" fill="black"/>
<path d="M19.1244 6.14143C20.3073 4.66585 21.1121 2.65369 20.8926 0.60495C19.1854 0.678119 17.0391 1.78785 15.8074 3.23905C14.722 4.51951 13.7464 6.60484 13.9903 8.56821C15.9171 8.71455 17.8927 7.59262 19.1244 6.14143Z" fill="black"/>
<path d="M55.3066 34.8238H52.2335L50.5506 29.5313H44.6971L43.0995 34.8238H40.1118L45.9044 16.812H49.4897L55.3066 34.8238ZM50.0506 27.3118L48.5263 22.6167C48.3677 22.129 48.0629 21.007 47.6238 19.2266H47.5629C47.3799 19.9948 47.0995 21.129 46.7092 22.6167L45.2092 27.3118H50.0506Z" fill="black"/>
<path d="M70.1966 28.1776C70.1966 30.3849 69.599 32.1287 68.3917 33.4092C67.3186 34.5555 65.9771 35.1165 64.3918 35.1165C62.6723 35.1165 61.4407 34.5067 60.6846 33.2751V40.092H57.7944V26.1045C57.7944 24.7142 57.7578 23.2996 57.6846 21.8362H60.2212L60.3797 23.8972H60.4285C61.3919 22.3484 62.8553 21.568 64.8064 21.568C66.343 21.568 67.6113 22.1777 68.6356 23.385C69.6844 24.6045 70.1966 26.1898 70.1966 28.1776ZM67.2576 28.2752C67.2576 27.0069 66.9771 25.9703 66.404 25.1533C65.782 24.2996 64.9406 23.8728 63.8918 23.8728C63.1845 23.8728 62.5382 24.1167 61.9528 24.5801C61.3797 25.0557 60.9894 25.6654 60.8187 26.4337C60.7333 26.7874 60.6846 27.0801 60.6846 27.3118V29.4824C60.6846 30.4215 60.9772 31.2263 61.5504 31.8726C62.1236 32.519 62.8796 32.8482 63.8065 32.8482C64.8918 32.8482 65.7333 32.4214 66.343 31.5922C66.9527 30.7507 67.2576 29.6532 67.2576 28.2752Z" fill="black"/>
<path d="M85.1231 28.1776C85.1231 30.3849 84.5256 32.1287 83.3183 33.4092C82.2451 34.5555 80.9037 35.1165 79.3184 35.1165C77.5989 35.1165 76.3672 34.5067 75.6111 33.2751V40.092H72.7209V26.1045C72.7209 24.7142 72.6843 23.2996 72.6112 21.8362H75.1477L75.3062 23.8972H75.355C76.3184 22.3484 77.7818 21.568 79.733 21.568C81.2695 21.568 82.5378 22.1777 83.5622 23.385C84.611 24.6045 85.1231 26.1898 85.1231 28.1776ZM82.1842 28.2752C82.1842 27.0069 81.9037 25.9703 81.3305 25.1533C80.7086 24.2996 79.8671 23.8728 78.8184 23.8728C78.1111 23.8728 77.4647 24.1167 76.8794 24.5801C76.3062 25.0557 75.9282 25.6654 75.7453 26.4337C75.6599 26.7874 75.6111 27.0801 75.6111 27.3118V29.4824C75.6111 30.4215 75.9038 31.2263 76.477 31.8726C77.0501 32.519 77.8062 32.8482 78.733 32.8482C79.8184 32.8482 80.672 32.4214 81.2695 31.5922C81.8915 30.7507 82.1842 29.6532 82.1842 28.2752Z" fill="black"/>
<path d="M101.83 29.7751C101.83 31.3117 101.294 32.5556 100.233 33.519C99.0619 34.5677 97.4278 35.0921 95.3303 35.0921C93.3913 35.0921 91.8425 34.7141 90.6718 33.9702L91.3425 31.5678C92.6108 32.3117 94.001 32.6897 95.5132 32.6897C96.5985 32.6897 97.4522 32.4458 98.0497 31.958C98.6595 31.4702 98.9643 30.8117 98.9643 29.9946C98.9643 29.263 98.7082 28.6532 98.2205 28.1532C97.7205 27.6532 96.8912 27.1898 95.7327 26.763C92.5498 25.5801 90.9767 23.8606 90.9767 21.6046C90.9767 20.129 91.5377 18.9217 92.6474 17.9705C93.7571 17.0315 95.2327 16.5559 97.0741 16.5559C98.7082 16.5559 100.074 16.8364 101.159 17.4095L100.428 19.7509C99.4034 19.2022 98.257 18.9217 96.9644 18.9217C95.9522 18.9217 95.1473 19.1778 94.5742 19.6656C94.0986 20.1168 93.8547 20.6534 93.8547 21.2997C93.8547 22.007 94.1352 22.6045 94.6839 23.0558C95.1595 23.4826 96.0376 23.946 97.3058 24.446C98.8546 25.0679 99.9887 25.7996 100.72 26.6411C101.464 27.4825 101.83 28.5313 101.83 29.7751Z" fill="black"/>
<path d="M111.391 24.007H108.208V30.3117C108.208 31.9092 108.769 32.7141 109.891 32.7141C110.403 32.7141 110.83 32.6653 111.171 32.58L111.257 34.775C110.684 34.9824 109.94 35.0921 109.013 35.0921C107.867 35.0921 106.989 34.7385 106.342 34.0433C105.696 33.3482 105.379 32.1775 105.379 30.5434V23.9948H103.489V21.8363H105.379V19.4583L108.208 18.6046V21.8363H111.391V24.007Z" fill="black"/>
<path d="M125.708 28.2264C125.708 30.2263 125.135 31.8605 124 33.1409C122.805 34.458 121.22 35.1165 119.244 35.1165C117.342 35.1165 115.818 34.4824 114.684 33.2263C113.549 31.9702 112.988 30.3727 112.988 28.4459C112.988 26.4337 113.574 24.7874 114.732 23.507C115.903 22.2265 117.476 21.5802 119.452 21.5802C121.354 21.5802 122.891 22.2143 124.049 23.4826C125.159 24.7021 125.708 26.2874 125.708 28.2264ZM122.72 28.2874C122.72 27.0923 122.464 26.0801 121.952 25.2264C121.342 24.1899 120.476 23.6777 119.354 23.6777C118.196 23.6777 117.305 24.1899 116.708 25.2264C116.184 26.0801 115.94 27.1167 115.94 28.3483C115.94 29.5434 116.196 30.5678 116.708 31.4093C117.33 32.4458 118.208 32.958 119.33 32.958C120.427 32.958 121.293 32.4336 121.927 31.3849C122.452 30.5068 122.72 29.4825 122.72 28.2874Z" fill="black"/>
<path d="M135.098 24.3728C134.817 24.324 134.512 24.2996 134.183 24.2996C133.171 24.2996 132.378 24.6777 131.83 25.4459C131.354 26.1167 131.11 26.9825 131.11 28.0069V34.8238H128.22V25.9215C128.22 24.4216 128.195 23.0557 128.135 21.8362H130.647L130.756 24.324H130.842C131.147 23.4704 131.622 22.7753 132.281 22.2631C132.927 21.7997 133.622 21.568 134.366 21.568C134.634 21.568 134.878 21.5924 135.086 21.6167L135.098 24.3728Z" fill="black"/>
<path d="M148 27.7142C148 28.2264 147.963 28.6654 147.89 29.0191H139.232C139.268 30.2995 139.683 31.2873 140.488 31.958C141.22 32.5556 142.159 32.8605 143.317 32.8605C144.598 32.8605 145.768 32.6531 146.817 32.2507L147.268 34.2507C146.037 34.7872 144.585 35.0555 142.915 35.0555C140.903 35.0555 139.317 34.458 138.171 33.2751C137.025 32.0922 136.451 30.4946 136.451 28.5069C136.451 26.5557 136.988 24.9216 138.061 23.6167C139.183 22.2265 140.695 21.5314 142.598 21.5314C144.463 21.5314 145.89 22.2265 146.841 23.6167C147.61 24.7387 148 26.0923 148 27.7142ZM145.244 26.9703C145.268 26.1167 145.073 25.3728 144.683 24.7509C144.183 23.946 143.415 23.5436 142.39 23.5436C141.451 23.5436 140.683 23.9338 140.098 24.7143C139.622 25.3362 139.329 26.0923 139.244 26.9581L145.244 26.9703Z" fill="black"/>
<path d="M48.6604 10.3731H47.1482L46.319 7.77556H43.441L42.6483 10.3731H41.1849L44.0264 1.51958H45.7824L48.6604 10.3731ZM46.0629 6.67802L45.319 4.36099C45.2458 4.12928 45.0995 3.56832 44.8678 2.69029H44.8434C44.7459 3.06833 44.6239 3.6171 44.4166 4.36099L43.6849 6.67802H46.0629Z" fill="black"/>
<path d="M55.7822 3.98294L53.3676 10.3731H51.9896L49.6482 3.98294H51.1726L52.2579 7.36093C52.4408 7.92189 52.5994 8.45847 52.7213 8.97065H52.7579C52.8677 8.50725 53.0262 7.97067 53.2213 7.36093L54.2945 3.98294H55.7822Z" fill="black"/>
<path d="M60.9285 10.3731L60.8187 9.64137H60.7821C60.3431 10.2267 59.7212 10.5194 58.9163 10.5194C57.77 10.5194 56.9651 9.71454 56.9651 8.64139C56.9651 7.06825 58.331 6.25119 60.6968 6.25119V6.12924C60.6968 5.28779 60.2456 4.87317 59.3675 4.87317C58.7334 4.87317 58.1846 5.0317 57.6968 5.34877L57.4041 4.42195C57.9895 4.05611 58.7334 3.87318 59.5992 3.87318C61.2699 3.87318 62.1114 4.75122 62.1114 6.51948V8.87309C62.1114 9.51942 62.1358 10.0194 62.2089 10.3975L60.9285 10.3731ZM60.7334 7.19019C59.1602 7.19019 58.3675 7.56824 58.3675 8.48285C58.3675 9.15357 58.77 9.48283 59.3431 9.48283C60.0626 9.48283 60.7334 8.93406 60.7334 8.17798V7.19019Z" fill="black"/>
<path d="M65.2699 2.93418C64.7943 2.93418 64.4284 2.56833 64.4284 2.08054C64.4284 1.59274 64.8065 1.23909 65.2942 1.23909C65.782 1.23909 66.1723 1.59274 66.1601 2.08054C66.1601 2.59272 65.7942 2.93418 65.2699 2.93418ZM64.5869 3.98294H66.0016V10.3609H64.5869V3.98294Z" fill="black"/>
<path d="M68.5259 1.05617H69.9405V10.3609H68.5259V1.05617Z" fill="black"/>
<path d="M75.9648 10.3731L75.855 9.64137H75.8184C75.3794 10.2267 74.7575 10.5194 73.9526 10.5194C72.8063 10.5194 72.0014 9.71454 72.0014 8.64139C72.0014 7.06825 73.3673 6.25119 75.7331 6.25119V6.12924C75.7331 5.28779 75.2819 4.87317 74.4038 4.87317C73.7697 4.87317 73.2209 5.0317 72.7331 5.34877L72.4405 4.40976C73.0258 4.04392 73.7697 3.86099 74.6355 3.86099C76.3062 3.86099 77.1477 4.73902 77.1477 6.50728V8.8609C77.1477 9.50723 77.1721 10.0072 77.233 10.3853H75.9648V10.3731ZM75.7697 7.1902C74.1965 7.1902 73.4039 7.56824 73.4039 8.48286C73.4039 9.15357 73.8063 9.48284 74.3794 9.48284C75.0989 9.48284 75.7697 8.93407 75.7697 8.17798V7.1902Z" fill="black"/>
<path d="M82.9037 10.5194C82.0012 10.5194 81.3305 10.1414 80.8915 9.38528H80.8671L80.7818 10.3731H79.5745C79.6111 9.86088 79.6232 9.28772 79.6232 8.65359V1.05617H81.05V4.92195H81.0744C81.5013 4.21464 82.172 3.86099 83.111 3.86099C84.6475 3.86099 85.7207 5.17804 85.7207 7.09264C85.7207 9.06821 84.5256 10.5194 82.9037 10.5194ZM82.611 4.97073C81.7939 4.97073 81.05 5.67803 81.05 6.66582V7.78775C81.05 8.66578 81.7208 9.38528 82.5866 9.38528C83.6476 9.38528 84.2817 8.51944 84.2817 7.14142C84.2817 5.84876 83.6232 4.97073 82.611 4.97073Z" fill="black"/>
<path d="M87.8182 1.05617H89.2328V10.3609H87.8182V1.05617Z" fill="black"/>
<path d="M96.9522 7.51947H92.6962C92.7206 8.72676 93.5254 9.40967 94.7083 9.40967C95.3425 9.40967 95.9156 9.29992 96.4278 9.1048L96.6473 10.0926C96.0498 10.3609 95.3425 10.4828 94.5132 10.4828C92.5133 10.4828 91.3303 9.22675 91.3303 7.26337C91.3303 5.31219 92.5376 3.83661 94.3547 3.83661C95.9766 3.83661 97.0132 5.0439 97.0132 6.87314C97.0132 7.12923 97.001 7.34874 96.9522 7.51947ZM95.6595 6.50729C95.6595 5.5195 95.1595 4.8244 94.2571 4.8244C93.4401 4.8244 92.8059 5.5317 92.7084 6.50729H95.6595Z" fill="black"/>
<path d="M105.55 10.5194C103.684 10.5194 102.476 9.12919 102.476 7.23898C102.476 5.2634 103.708 3.86099 105.659 3.86099C107.501 3.86099 108.732 5.19024 108.732 7.12922C108.732 9.11699 107.464 10.5194 105.55 10.5194ZM105.611 4.89756C104.586 4.89756 103.928 5.86095 103.928 7.1902C103.928 8.50725 104.598 9.45845 105.598 9.45845C106.598 9.45845 107.269 8.43408 107.269 7.15361C107.257 5.86095 106.611 4.89756 105.611 4.89756Z" fill="black"/>
<path d="M116.354 10.3731H114.94V6.70241C114.94 5.56828 114.501 5.00732 113.647 5.00732C112.806 5.00732 112.232 5.72681 112.232 6.56826V10.3609H110.818V5.81218C110.818 5.25121 110.806 4.64147 110.769 3.98294H112.013L112.074 4.97073H112.11C112.488 4.28782 113.269 3.8488 114.135 3.8488C115.476 3.8488 116.354 4.87317 116.354 6.54387V10.3731Z" fill="black"/>
<path d="M125.635 5.0561H124.074V8.1536C124.074 8.94627 124.354 9.33651 124.903 9.33651C125.147 9.33651 125.366 9.31212 125.537 9.27553L125.574 10.3487C125.293 10.4584 124.927 10.5072 124.476 10.5072C123.354 10.5072 122.696 9.88528 122.696 8.27555V5.0561H121.769V3.99514H122.696V2.82443L124.086 2.39761V3.98295H125.647V5.0561" fill="black"/>
<path d="M133.147 10.3731H131.732V6.72679C131.732 5.58047 131.293 5.00731 130.439 5.00731C129.708 5.00731 129.025 5.5073 129.025 6.51948V10.3609H127.61V1.05617H129.025V4.88536H129.049C129.5 4.19025 130.134 3.8488 130.964 3.8488C132.317 3.8488 133.147 4.89756 133.147 6.56826V10.3731Z" fill="black"/>
<path d="M140.39 7.51947H136.134C136.159 8.72676 136.964 9.40967 138.147 9.40967C138.781 9.40967 139.354 9.29992 139.866 9.1048L140.086 10.0926C139.488 10.3609 138.781 10.4828 137.951 10.4828C135.951 10.4828 134.769 9.22675 134.769 7.26337C134.769 5.31219 135.976 3.83661 137.793 3.83661C139.415 3.83661 140.451 5.0439 140.451 6.87314C140.451 7.12923 140.439 7.34874 140.39 7.51947ZM139.098 6.50729C139.098 5.5195 138.598 4.8244 137.695 4.8244C136.878 4.8244 136.232 5.5317 136.147 6.50729H139.098Z" fill="black"/>
</svg>
