<svg width="174" height="43" viewBox="0 0 174 43" fill="none" xmlns="http://www.w3.org/2000/svg">
<g clip-path="url(#clip0)">
<path d="M0.514938 -0.687958V43.5059L22.2657 21.4098L0.514938 -0.687958Z" fill="url(#paint0_linear)"/>
<path d="M28.1078 15.4745L19.3273 10.2807L0.514938 -0.848328V-0.687958L22.2657 21.4097L28.1078 15.4745Z" fill="url(#paint1_linear)"/>
<path d="M0.514938 43.5059V43.6663L19.3273 32.5372L28.107 27.3442L22.2657 21.4097L0.514938 43.5059Z" fill="url(#paint2_linear)"/>
<path d="M28.1077 15.4745L22.2657 21.4097L28.107 27.3442L38.1411 21.409L28.1077 15.4745Z" fill="url(#paint3_linear)"/>
<path d="M137.448 30.048C136.632 30.048 135.886 29.8938 135.211 29.5847C134.531 29.2719 133.945 28.78 133.511 28.1592H133.373C133.465 28.9099 133.511 29.6227 133.511 30.2944V35.5819H131.611V16.9612H133.156L133.419 18.7206H133.511C133.999 18.0172 134.568 17.509 135.217 17.196C135.865 16.8837 136.61 16.7273 137.448 16.7273C139.112 16.7273 140.396 17.3099 141.3 18.4743C142.204 19.6395 142.657 21.2734 142.657 23.376C142.657 25.4879 142.198 27.1265 141.278 28.2963C140.357 29.4639 139.082 30.048 137.448 30.048ZM137.174 18.3805C135.892 18.3805 134.966 18.7439 134.393 19.4714C133.82 20.1988 133.526 21.3555 133.511 22.9429V23.3768C133.511 25.1827 133.805 26.4749 134.393 27.2528C134.98 28.0314 135.922 28.4203 137.219 28.4203C138.303 28.4203 139.153 27.971 139.767 27.0723C140.381 26.1736 140.688 24.934 140.688 23.3543C140.688 21.7522 140.381 20.5219 139.767 19.6658C139.153 18.8082 138.288 18.3805 137.174 18.3805ZM147.055 29.8133H145.154V11.5668H147.055V29.8133ZM157.978 29.8133L157.6 27.9841H157.508C156.883 28.7898 156.259 29.3353 155.637 29.6196C155.015 29.9055 154.237 30.048 153.308 30.048C152.063 30.048 151.089 29.7195 150.384 29.0633C149.678 28.4071 149.325 27.4728 149.325 26.2611C149.325 23.6658 151.352 22.3069 155.402 22.1798L157.532 22.1093V21.3121C157.532 20.3034 157.32 19.5589 156.895 19.0786C156.472 18.5975 155.795 18.3573 154.863 18.3573C153.817 18.3573 152.636 18.6858 151.315 19.342L150.732 17.8529C151.351 17.509 152.028 17.2394 152.765 17.0441C153.502 16.8489 154.239 16.7513 154.981 16.7513C156.476 16.7513 157.584 17.0914 158.305 17.7716C159.025 18.4518 159.386 19.5426 159.386 21.0433V29.8148H157.979V29.8133H157.978ZM153.686 28.442C154.867 28.442 155.796 28.1096 156.473 27.4457C157.148 26.7817 157.486 25.8505 157.486 24.6535V23.493L155.585 23.5736C154.075 23.6286 152.986 23.8695 152.318 24.2964C151.65 24.7225 151.318 25.3841 151.318 26.2828C151.318 26.9863 151.524 27.5224 151.941 27.8888C152.357 28.2584 152.937 28.442 153.686 28.442ZM160.489 16.9612H162.525L165.273 24.2902C165.875 25.9628 166.25 27.1714 166.395 27.9144H166.486C166.585 27.5146 166.793 26.8329 167.109 25.866C167.425 24.9015 168.462 21.9327 170.216 16.9597H172.253L166.862 31.5944C166.328 33.04 165.704 34.0658 164.989 34.6739C164.276 35.279 163.4 35.5819 162.363 35.5819C161.782 35.5819 161.211 35.5153 160.646 35.3828V33.8248C161.109 33.9232 161.581 33.9704 162.054 33.9658C163.359 33.9658 164.289 33.2151 164.846 31.7145L165.544 29.8861L160.489 16.9612Z" fill="#808080"/>
<path d="M102.253 18.1559C102.857 18.6672 104.116 19.7417 104.116 21.7855C104.116 23.7727 103.014 24.7155 101.912 25.6018C101.571 25.9504 101.176 26.3285 101.176 26.9204C101.176 27.5108 101.57 27.8338 101.858 28.0755L102.804 28.827C103.958 29.8218 105.007 30.7367 105.007 32.5915C105.007 35.1186 102.619 37.6722 98.1071 37.6722C94.3014 37.6722 92.4655 35.8174 92.4655 33.8272C92.4655 32.8595 92.9366 31.4882 94.4859 30.5477C96.1116 29.5274 98.3166 29.3934 99.4969 29.3105C99.1295 28.827 98.7098 28.3165 98.7098 27.4852C98.7098 27.0281 98.8421 26.7585 98.9729 26.4362C98.6833 26.4633 98.3952 26.4897 98.1329 26.4897C95.3525 26.4897 93.7782 24.3661 93.7782 22.2705C93.7782 21.0332 94.3294 19.6619 95.4568 18.668C96.9532 17.4044 98.737 17.189 100.155 17.189H105.558L103.879 18.1566H102.253V18.1559ZM100.39 30.0922C100.181 30.0651 100.048 30.0651 99.7873 30.0651C99.5514 30.0651 98.1328 30.1185 97.0304 30.4974C96.4534 30.7096 94.774 31.3558 94.774 33.2655C94.774 35.1721 96.5858 36.5449 99.3934 36.5449C101.91 36.5449 103.25 35.3053 103.25 33.6404C103.25 32.2661 102.385 31.544 100.39 30.0922ZM101.151 24.9836C101.754 24.3646 101.805 23.5054 101.805 23.0212C101.805 21.0859 100.678 18.0753 98.5011 18.0753C97.8183 18.0753 97.0841 18.4247 96.6629 18.9631C96.2183 19.5279 96.0852 20.2531 96.0852 20.9526C96.0852 22.7531 97.109 25.7374 99.3669 25.7374C100.023 25.7366 100.729 25.4143 101.151 24.9836ZM85.7357 29.6614C81.5716 29.6614 79.3447 26.3332 79.3447 23.3264C79.3447 19.8091 82.147 16.8055 86.1304 16.8055C89.9785 16.8055 92.3899 19.8913 92.3899 23.1397C92.3891 26.3053 90.0072 29.6614 85.7357 29.6614ZM89.0083 27.4875C89.639 26.6283 89.7955 25.5553 89.7955 24.5063C89.7955 22.1442 88.696 17.636 85.4476 17.636C84.5809 17.644 83.7453 17.9681 83.0907 18.5502C82.0691 19.4884 81.8846 20.6699 81.8846 21.825C81.8846 24.4808 83.1686 28.8541 86.3391 28.8541C87.3599 28.8549 88.4072 28.3459 89.0083 27.4875ZM71.5374 29.6614C67.3725 29.6614 65.1456 26.3332 65.1456 23.3264C65.1456 19.8091 67.9495 16.8055 71.9314 16.8055C75.7817 16.8055 78.1916 19.8913 78.1916 23.1397C78.1908 26.3053 75.8074 29.6614 71.5374 29.6614ZM74.8116 27.4875C75.4407 26.6283 75.598 25.5553 75.598 24.5063C75.598 22.1442 74.497 17.636 71.2486 17.636C70.3819 17.6442 69.5463 17.9682 68.8916 18.5502C67.8701 19.4884 67.6871 20.6699 67.6871 21.825C67.6871 24.4808 68.9695 28.8541 72.1408 28.8541C73.1624 28.8549 74.2097 28.3459 74.8116 27.4875ZM63.1441 29.2407L59.3777 30.1309C57.8495 30.3734 56.4801 30.588 55.0328 30.588C47.7632 30.588 44.9987 25.1114 44.9987 20.8209C44.9987 15.5868 48.9216 10.7308 55.6385 10.7308C57.0609 10.7308 58.4295 10.9462 59.6673 11.2971C61.6424 11.8635 62.5641 12.5646 63.1441 12.9698L60.9573 15.1019L60.0363 15.3165L60.6949 14.2365C59.7996 13.3471 58.1656 11.7016 55.0593 11.7016C50.8982 11.7016 47.7639 14.9407 47.7639 19.6619C47.7639 24.7333 51.3458 29.5096 57.0866 29.5096C58.7735 29.5096 59.6408 29.1594 60.4318 28.8348V24.4924L56.4559 24.707L58.5618 23.5464H64.1453L63.4609 24.2197C63.2749 24.3832 63.25 24.4366 63.197 24.6512C63.1698 24.8945 63.1449 25.6785 63.1449 25.9481L63.1441 29.2407Z" fill="#7F7F7F"/>
<path d="M110.578 28.4637C109.709 28.3831 109.526 28.222 109.526 27.1668V11.8945L109.54 11.7202C109.647 10.7765 109.909 10.6146 110.727 10.1281H106.96L104.984 11.0996H106.997V11.112L106.996 11.1019V27.7602C106.996 28.2979 106.892 28.3808 106.286 29.1896H110.948L111.923 28.5969C111.473 28.5442 111.025 28.5187 110.578 28.4637ZM121.295 28.7124C121.008 28.8743 120.72 29.0618 120.433 29.195C119.568 29.5979 118.679 29.704 117.893 29.704C117.059 29.704 115.75 29.649 114.414 28.6581C112.559 27.3178 111.748 25.013 111.748 23.0026C111.748 18.8508 115.043 16.814 117.738 16.814C118.679 16.814 119.648 17.055 120.433 17.5647C121.739 18.4472 122.08 19.5992 122.261 20.2159L116.116 22.7624L114.102 22.9236C114.755 26.3277 117.004 28.308 119.49 28.308C120.823 28.308 121.792 27.8261 122.681 27.3713L121.295 28.7124ZM118.837 20.7256C119.333 20.5382 119.595 20.3778 119.595 20.0028C119.595 18.9314 118.417 17.698 117.004 17.698C115.957 17.698 113.996 18.5293 113.996 21.4229C113.996 21.8785 114.048 22.3603 114.075 22.8438L118.837 20.7256ZM123.818 16.9976V18.7656H123.608V16.9976H123.037V16.8148H124.388V16.9976H123.818ZM126.171 18.7656V16.9806H126.161L125.63 18.7656H125.466L124.929 16.9806H124.923V18.7656H124.732V16.814H125.059L125.545 18.3914H125.551L126.03 16.814H126.361V18.7656H126.171Z" fill="#7F7F7F"/>
</g>
<defs>
<linearGradient id="paint0_linear" x1="11.3907" y1="-0.687958" x2="11.3907" y2="43.5067" gradientUnits="userSpaceOnUse">
<stop stop-color="#207CB0"/>
<stop offset="0.376" stop-color="#3CB2BF"/>
<stop offset="0.796" stop-color="#58E9CE"/>
<stop offset="1" stop-color="#63FFD4"/>
</linearGradient>
<linearGradient id="paint1_linear" x1="0.514938" y1="10.2807" x2="28.1078" y2="10.2807" gradientUnits="userSpaceOnUse">
<stop stop-color="#4BC3AE"/>
<stop offset="1" stop-color="#DEE999"/>
</linearGradient>
<linearGradient id="paint2_linear" x1="14.311" y1="21.4097" x2="14.311" y2="43.667" gradientUnits="userSpaceOnUse">
<stop stop-color="#EC403D"/>
<stop offset="0.384" stop-color="#C93B75"/>
<stop offset="0.799" stop-color="#A636AC"/>
<stop offset="1" stop-color="#9934C2"/>
</linearGradient>
<linearGradient id="paint3_linear" x1="30.2038" y1="15.4745" x2="30.2038" y2="27.3442" gradientUnits="userSpaceOnUse">
<stop stop-color="#FF8877"/>
<stop offset="0.612" stop-color="#FFB175"/>
<stop offset="1" stop-color="#FFC774"/>
</linearGradient>
<clipPath id="clip0">
<rect width="174" height="43" fill="white"/>
</clipPath>
</defs>
</svg>
