<svg width="565" height="388" viewBox="0 0 565 388" fill="none" xmlns="http://www.w3.org/2000/svg">
<path d="M439.473 218.148C439.473 218.148 434.402 214.528 429.155 216.764C429.155 216.764 430.622 219.872 437.16 219.833L439.473 218.148Z" fill="#6C63FF"/>
<path d="M440.104 218.357C440.104 218.357 441.458 224.422 437.331 228.358C437.331 228.358 435.042 225.791 437.644 219.819L440.104 218.357Z" fill="#6C63FF"/>
<path d="M446.808 212.838C446.808 212.838 446.622 207.718 434.984 208.97C434.984 208.97 434.803 212.263 438.803 213.978C442.803 215.692 444.72 214.46 446.808 212.838Z" fill="#6C63FF"/>
<path d="M447.527 212.828C447.527 212.828 452.363 214.582 447.58 225.231C447.58 225.231 444.382 224.388 443.976 220.067C443.571 215.746 445.341 214.319 447.527 212.828Z" fill="#6C63FF"/>
<path d="M454.358 205.838C454.358 205.838 455.336 197.459 443.483 197.868C443.483 197.868 442.353 205.443 452.192 207.776L454.358 205.838Z" fill="#6C63FF"/>
<path d="M462.539 196.65C462.539 196.65 461.282 187.068 449.336 189.45C449.336 189.45 448.974 197.683 460.505 198.847L462.539 196.65Z" fill="#6C63FF"/>
<path d="M468.627 187.058C468.627 187.058 466.27 177.661 454.446 180.009C454.446 180.009 456.891 188.461 467.781 188.744L468.627 187.058Z" fill="#6C63FF"/>
<path d="M474.422 177.69C474.422 177.69 472.138 167.948 460.73 170.422C460.73 170.422 464.153 179.712 473.625 179.303L474.422 177.69Z" fill="#6C63FF"/>
<path d="M478.27 168.727C478.27 168.727 476.681 156.875 466.045 159.077C466.045 159.077 468.696 169.906 477.439 170.408L478.27 168.727Z" fill="#6C63FF"/>
<path d="M481.972 157.859C481.972 157.859 479.982 145.899 469.185 148.944C469.185 148.944 472.94 160.319 481.165 159.471L481.972 157.859Z" fill="#6C63FF"/>
<path d="M484.397 147.721C484.397 147.721 480.974 135.708 472.701 135.713C472.701 135.713 476.197 148.379 483.615 150.074L484.397 147.721Z" fill="#6C63FF"/>
<path d="M486.07 137.774C486.07 137.774 482.388 123.325 475.63 124.173C475.63 124.173 478.138 135.202 485.747 139.99L486.07 137.774Z" fill="#6C63FF"/>
<path d="M487.258 125.878C487.258 125.878 483.752 113.826 477.141 113.095C477.141 113.095 479.39 124.908 486.994 128.966L487.258 125.878Z" fill="#6C63FF"/>
<path d="M488.49 114.81C488.49 114.81 484.001 102.704 479.63 102.266C479.63 102.266 481.327 114.079 487.977 116.749L488.49 114.81Z" fill="#6C63FF"/>
<path d="M489.434 104.492C489.434 104.492 486.891 91.432 482.559 90.1946C482.559 90.1946 482.75 100.8 488.96 105.442L489.434 104.492Z" fill="#6C63FF"/>
<path d="M491.601 91.0276C491.601 91.0276 488.799 80.593 485.317 78.8831C485.317 78.8831 485.552 91.0617 490.696 93.4975L491.601 91.0276Z" fill="#6C63FF"/>
<path d="M493.312 82.1908L494.657 64.0301C494.657 64.0301 487.517 77.5045 492.701 85.3816L493.312 82.1908Z" fill="#6C63FF"/>
<path d="M499.131 64.3127C499.131 64.3127 504.408 51.2134 505.581 50.5168C505.581 50.5168 495.899 58.7982 496.388 69.8953L499.131 64.3127Z" fill="#6C63FF"/>
<path d="M454.681 205.789C454.681 205.789 463.116 205.014 462.407 216.813C462.407 216.813 454.779 217.753 452.681 207.893L454.681 205.789Z" fill="#6C63FF"/>
<path d="M462.945 196.348C462.945 196.348 472.637 196.684 471.385 208.741C471.385 208.741 463.194 209.881 460.94 198.555L462.945 196.348Z" fill="#6C63FF"/>
<path d="M468.691 187.847C468.691 187.847 477.649 184.072 482.872 194.896C482.872 194.896 474.613 198.009 467.85 189.538L468.691 187.847Z" fill="#6C63FF"/>
<path d="M474.617 177.788C474.617 177.788 483.791 173.754 488.686 184.325C488.686 184.325 479.175 187.185 473.811 179.395L474.617 177.788Z" fill="#6C63FF"/>
<path d="M478.148 168.975C478.148 168.975 487.136 161.054 493.733 169.667C493.733 169.667 484.613 176.117 477.679 170.797L478.148 168.975Z" fill="#6C63FF"/>
<path d="M481.493 157.557C481.493 157.557 490.539 149.451 497.068 158.531C497.068 158.531 487.009 165.083 481.111 159.306L481.493 157.557Z" fill="#6C63FF"/>
<path d="M483.517 147.337C483.517 147.337 490.642 137.058 498.466 139.708C498.466 139.708 491.063 150.6 483.498 149.816L483.517 147.337Z" fill="#6C63FF"/>
<path d="M485.869 137.701C485.869 137.701 493.16 124.684 499.469 127.232C499.469 127.232 494.197 137.248 485.615 139.922L485.869 137.701Z" fill="#6C63FF"/>
<path d="M486.823 125.181C486.823 125.181 494.187 115 500.657 116.525C500.657 116.525 494.559 126.901 486.031 128.182L486.823 125.181Z" fill="#6C63FF"/>
<path d="M487.762 114.547C487.762 114.547 493.605 103.031 497.997 103.094C497.997 103.094 494.96 114.639 488.05 116.53L487.762 114.547Z" fill="#6C63FF"/>
<path d="M489.229 104.229C489.229 104.229 495.684 92.5865 500.192 92.7326C500.192 92.7326 496.73 102.768 489.39 105.281L489.229 104.229Z" fill="#6C63FF"/>
<path d="M490.613 91.6999C490.613 91.6999 495.478 82.0447 499.234 81.0753C499.234 81.0753 496.53 92.9616 491.009 94.3256L490.613 91.6999Z" fill="#6C63FF"/>
<path d="M493.86 81.8693L504.466 67.0407C504.466 67.0407 501.322 81.957 492.285 84.7142L493.86 81.8693Z" fill="#6C63FF"/>
<path d="M501.376 65.6231C501.376 65.6231 513.312 58.0578 513.801 56.7766C513.801 56.7766 507.444 67.7763 496.363 69.3351L501.376 65.6231Z" fill="#6C63FF"/>
<path d="M502.212 62.0475C502.212 62.0475 516.08 49.7471 519.493 49.8932C519.493 49.8932 508.442 49.9712 501.889 61.3557L502.212 62.0475Z" fill="#6C63FF"/>
<path d="M490.671 93.6485L491.16 93.7313C494.427 74.2212 498.539 62.7782 502.735 61.5019L502.593 61.0147C498.153 62.3592 494.016 73.6366 490.671 93.6485Z" fill="#444053"/>
<path d="M485.17 140.356L485.904 140.443C486.129 138.622 486.324 136.751 486.476 134.89C487.801 118.693 489.464 103.835 491.322 92.718L490.916 92.1773C489.053 103.313 487.067 118.61 485.737 134.832C485.586 136.683 485.395 138.539 485.17 140.356Z" fill="#444053"/>
<path d="M425.375 226.955C425.507 226.902 438.69 221.631 452.676 208.39C460.866 200.64 467.772 191.647 473.136 181.743C479.84 169.365 484.226 154.001 486.08 138.987L485.297 139.318C481.141 173.019 464.798 195.544 452.045 207.65C438.196 220.773 425.15 225.991 425.028 226.039L425.375 226.955Z" fill="#444053"/>
<g opacity="0.7">
<path opacity="0.7" d="M419.013 187.282C419.013 187.282 413.091 185.334 408.744 189.021C408.744 189.021 411.076 191.554 417.306 189.577L419.013 187.282Z" fill="#6C63FF"/>
<path opacity="0.7" d="M419.678 187.292C419.678 187.292 422.778 192.685 420.015 197.658C420.015 197.658 417.081 195.89 417.761 189.416L419.678 187.292Z" fill="#6C63FF"/>
<path opacity="0.7" d="M424.436 180.038C424.436 180.038 422.724 175.206 411.991 179.848C411.991 179.848 412.798 183.049 417.135 183.497C421.472 183.945 422.92 182.197 424.436 180.038Z" fill="#6C63FF"/>
<path opacity="0.7" d="M425.116 179.819C425.116 179.819 430.25 180.063 428.871 191.642C428.871 191.642 425.561 191.788 423.883 187.779C422.206 183.77 423.473 181.885 425.116 179.819Z" fill="#6C63FF"/>
<path opacity="0.7" d="M429.546 171.104C429.546 171.104 427.986 162.823 416.788 166.72C416.788 166.72 417.966 174.285 428.059 173.598L429.546 171.104Z" fill="#6C63FF"/>
<path opacity="0.7" d="M434.612 159.9C434.612 159.9 430.553 151.131 419.873 156.938C419.873 156.938 421.986 164.903 433.345 162.599L434.612 159.9Z" fill="#6C63FF"/>
<path opacity="0.7" d="M437.566 148.964C437.566 148.964 432.504 140.682 421.917 146.435C421.917 146.435 426.807 153.772 437.257 150.82L437.566 148.964Z" fill="#6C63FF"/>
<path opacity="0.7" d="M440.299 138.3C440.299 138.3 435.213 129.687 425.047 135.421C425.047 135.421 431.086 143.274 440.006 140.078L440.299 138.3Z" fill="#6C63FF"/>
<path opacity="0.7" d="M441.297 128.601C441.297 128.601 436.24 117.757 426.734 123.018C426.734 123.018 432.499 132.566 440.993 130.457L441.297 128.601Z" fill="#6C63FF"/>
<path opacity="0.7" d="M441.58 117.129C441.58 117.129 436.108 106.3 426.715 112.408C426.715 112.408 433.693 122.151 441.292 118.907L441.58 117.129Z" fill="#6C63FF"/>
<path opacity="0.7" d="M440.861 106.719C440.861 106.719 434.015 96.2644 426.113 98.7196C426.113 98.7196 433.238 109.792 440.822 109.198L440.861 106.719Z" fill="#6C63FF"/>
<path opacity="0.7" d="M439.473 96.737C439.473 96.737 431.649 84.0371 425.443 86.8479C425.443 86.8479 431.135 96.6347 439.825 98.9486L439.473 96.737Z" fill="#6C63FF"/>
<path opacity="0.7" d="M437.081 85.0309C437.081 85.0309 430.128 74.5622 423.605 75.8239C423.605 75.8239 429.277 86.4387 437.747 88.0561L437.081 85.0309Z" fill="#6C63FF"/>
<path opacity="0.7" d="M434.945 74.0945C434.945 74.0945 427.047 63.8645 422.744 64.7511C422.744 64.7511 427.893 75.5267 435.037 76.0967L434.945 74.0945Z" fill="#6C63FF"/>
<path opacity="0.7" d="M432.768 63.9668C432.768 63.9668 426.441 52.2754 421.932 52.3533C421.932 52.3533 425.287 62.4226 432.597 65.019L432.768 63.9668Z" fill="#6C63FF"/>
<path opacity="0.7" d="M430.817 50.4681C430.817 50.4681 425.023 41.339 421.189 40.7252C421.189 40.7252 425.052 52.29 430.685 53.1035L430.817 50.4681Z" fill="#6C63FF"/>
<path opacity="0.7" d="M429.81 41.5241L425.668 23.7823C425.668 23.7823 422.876 38.762 430.182 44.7295L429.81 41.5241Z" fill="#6C63FF"/>
<path opacity="0.7" d="M430.015 22.735C430.015 22.735 431.145 8.66629 432.054 7.63354C432.054 7.63354 425.277 18.3897 429.062 28.8633L430.015 22.735Z" fill="#6C63FF"/>
<path opacity="0.7" d="M429.844 170.973C429.844 170.973 437.668 167.738 440.509 179.215C440.509 179.215 433.512 182.372 428.563 173.579L429.844 170.973Z" fill="#6C63FF"/>
<path opacity="0.7" d="M434.915 159.51C434.915 159.51 444.27 156.962 446.676 168.844C446.676 168.844 439.194 172.361 433.658 162.214L434.915 159.51Z" fill="#6C63FF"/>
<path opacity="0.7" d="M437.859 149.694C437.859 149.694 445.282 143.434 453.507 152.223C453.507 152.223 446.553 157.644 437.561 151.55L437.859 149.694Z" fill="#6C63FF"/>
<path opacity="0.7" d="M440.509 138.334C440.509 138.334 448.069 131.767 455.893 140.404C455.893 140.404 447.668 145.958 440.221 140.112L440.509 138.334Z" fill="#6C63FF"/>
<path opacity="0.7" d="M441.248 128.879C441.248 128.879 447.468 118.649 456.338 124.913C456.338 124.913 449.556 133.779 441.346 130.759L441.248 128.879Z" fill="#6C63FF"/>
<path opacity="0.7" d="M441.033 116.983C441.033 116.983 447.253 106.563 456.192 113.305C456.192 113.305 448.544 122.56 441.195 118.775L441.033 116.983Z" fill="#6C63FF"/>
<path opacity="0.7" d="M439.918 106.621C439.918 106.621 443.649 94.7007 451.908 94.9296C451.908 94.9296 448.094 107.527 440.637 109.018L439.918 106.621Z" fill="#6C63FF"/>
<path opacity="0.7" d="M439.287 96.7272C439.287 96.7272 442.358 82.1373 449.14 82.7024C449.14 82.7024 447.096 93.8287 439.703 98.9291L439.287 96.7272Z" fill="#6C63FF"/>
<path opacity="0.7" d="M436.451 84.495C436.451 84.495 440.441 72.5893 447.077 72.1265C447.077 72.1265 444.353 83.8423 436.592 87.5933L436.451 84.495Z" fill="#6C63FF"/>
<path opacity="0.7" d="M434.172 74.0604C434.172 74.0604 436.314 61.3362 440.529 60.094C440.529 60.094 441.072 72.0144 435.042 75.8726L434.172 74.0604Z" fill="#6C63FF"/>
<path opacity="0.7" d="M432.495 63.7768C432.495 63.7768 435.179 50.7457 439.526 49.5522C439.526 49.5522 439.218 60.1573 432.959 64.7316L432.495 63.7768Z" fill="#6C63FF"/>
<path opacity="0.7" d="M430.079 51.4229C430.079 51.4229 431.839 40.7642 435.135 38.723C435.135 38.723 436.113 50.8724 431.223 53.8245L430.079 51.4229Z" fill="#6C63FF"/>
<path opacity="0.7" d="M430.235 41.037L435.937 23.7336C435.937 23.7336 437.404 38.9033 429.58 44.218L430.235 41.037Z" fill="#6C63FF"/>
<path opacity="0.7" d="M432.558 23.3196C432.558 23.3196 441.717 12.5488 441.786 11.1897C441.786 11.1897 438.984 23.5778 428.891 28.3469L432.558 23.3196Z" fill="#6C63FF"/>
<path opacity="0.7" d="M432.289 19.6611C432.289 19.6611 441.859 3.80459 445.16 2.92773C445.16 2.92773 434.636 6.28415 431.8 19.0814L432.289 19.6611Z" fill="#6C63FF"/>
<path opacity="0.7" d="M430.705 53.2156L431.194 53.1474C428.49 33.5593 428.993 21.41 432.622 18.9499L432.343 18.5456C428.495 21.1615 427.932 33.1501 430.705 53.2156Z" fill="#444053"/>
<path opacity="0.7" d="M439.409 99.4942L440.138 99.3626C439.805 97.5553 439.434 95.7139 439.023 93.8872C435.448 78.0306 432.597 63.3579 431.057 52.1925L430.504 51.7931C432.05 62.9974 434.724 78.1719 438.299 94.0528C438.71 95.8406 439.081 97.6723 439.409 99.4942Z" fill="#444053"/>
<path opacity="0.7" d="M408.176 199.87C408.284 199.782 419.296 190.843 428.715 174.051C434.219 164.226 438.124 153.592 440.284 142.548C442.989 128.742 442.593 112.774 439.874 97.8915L439.228 98.4371C445.316 131.845 436.441 158.2 427.864 173.54C418.573 190.171 407.678 199.018 407.565 199.105L408.176 199.87Z" fill="#444053"/>
</g>
<path d="M95.3929 360.027C95.3929 360.027 116.068 358.785 113.628 373.219C113.628 373.219 114.117 375.766 111.794 376.926C111.794 376.926 111.755 375.854 109.672 376.219C108.931 376.344 108.177 376.38 107.427 376.327C106.413 376.256 105.448 375.859 104.679 375.196C104.679 375.196 98.8698 372.805 96.6105 363.344C96.6105 363.344 94.9382 361.279 95.0018 360.748L98.4932 362.209C98.4932 362.209 97.3001 364.718 98.239 366.798C98.239 366.798 98.3514 362.302 99.0214 362.414C99.1583 362.438 100.836 363.286 100.836 363.286C100.836 363.286 98.7817 367.67 100.347 370.827C100.347 370.827 99.7597 365.444 101.491 363.598L103.936 365.03C103.936 365.03 101.54 369.541 103.163 373.219C103.163 373.219 102.748 367.573 104.454 365.376L106.679 367.105C106.679 367.105 104.425 371.553 105.799 374.602C105.799 374.602 105.98 368.031 107.158 367.534C107.158 367.534 109.114 369.244 109.403 369.969C109.403 369.969 107.863 373.194 108.816 374.899C108.816 374.899 109.403 370.515 109.887 370.515C109.887 370.515 111.843 373.413 112.029 375.386C112.029 375.386 111.946 372.429 110.356 370.223C111.475 370.432 112.507 370.964 113.325 371.752C113.325 371.752 113.022 369.701 109.902 369.521C109.902 369.521 108.298 367.324 107.867 367.188C107.867 367.188 111.002 366.93 112.899 367.767C112.899 367.767 111.227 365.819 107.295 366.71L105.1 364.923C105.1 364.923 109.222 364.362 110.968 364.981C110.968 364.981 108.958 363.271 104.508 364.518L102.117 363.096C102.117 363.096 105.628 362.341 107.721 362.609C107.721 362.609 105.51 361.42 101.413 362.706L99.7011 361.941C99.7011 361.941 102.278 361.454 103.031 361.357C103.784 361.259 103.823 361.069 103.823 361.069C102.194 360.798 100.521 360.984 98.992 361.605C98.992 361.605 95.3294 360.256 95.3929 360.027Z" fill="#6C63FF"/>
<path d="M142.231 367.015C142.231 367.015 153.884 366.318 152.5 374.454C152.571 374.866 152.51 375.29 152.325 375.665C152.139 376.041 151.84 376.348 151.468 376.543C151.468 376.543 151.444 375.939 150.27 376.144C149.852 376.217 149.427 376.238 149.004 376.207C148.432 376.169 147.89 375.945 147.458 375.569C147.458 375.569 144.182 374.22 142.906 368.886C142.906 368.886 141.962 367.721 142.001 367.424L143.957 368.262C143.957 368.262 143.287 369.675 143.815 370.849C143.815 370.849 143.879 368.311 144.255 368.374C144.334 368.374 145.278 368.861 145.278 368.861C145.278 368.861 144.123 371.326 144.994 373.114C144.994 373.114 144.661 370.079 145.639 369.041L147.023 369.845C147.023 369.845 145.674 372.388 146.588 374.463C146.588 374.463 146.353 371.282 147.317 370.04L148.569 371.014C148.569 371.014 147.302 373.523 148.08 375.243C148.08 375.243 148.182 371.54 148.847 371.258C149.322 371.659 149.747 372.115 150.114 372.617C150.114 372.617 149.243 374.439 149.781 375.399C149.781 375.399 150.114 372.929 150.383 372.919C150.383 372.919 151.478 374.556 151.591 375.676C151.538 374.637 151.213 373.629 150.647 372.753C151.278 372.872 151.861 373.172 152.324 373.616C152.324 373.616 152.153 372.461 150.368 372.359C150.368 372.359 149.463 371.117 149.224 371.044C149.224 371.044 150.989 370.897 152.06 371.37C152.06 371.37 151.116 370.279 148.901 370.771L147.659 369.767C147.659 369.767 149.987 369.451 150.97 369.801C150.97 369.801 149.835 368.827 147.326 369.538L145.977 368.735C147.015 368.508 148.079 368.416 149.141 368.462C149.141 368.462 147.894 367.794 145.586 368.52L144.608 368.087C144.608 368.087 146.075 367.804 146.485 367.76C146.896 367.716 146.935 367.595 146.935 367.595C146.015 367.442 145.071 367.547 144.207 367.897C144.207 367.897 142.197 367.146 142.231 367.015Z" fill="#6C63FF"/>
<path opacity="0.1" d="M150.255 381.643C145.699 381.643 142.006 381.021 142.006 380.255C142.006 379.488 145.699 378.866 150.255 378.866C154.812 378.866 158.505 379.488 158.505 380.255C158.505 381.021 154.812 381.643 150.255 381.643Z" fill="#6C63FF"/>
<path d="M98.1186 336.392C98.1186 336.392 112.192 335.544 110.53 345.37C110.616 345.868 110.542 346.38 110.318 346.834C110.094 347.287 109.731 347.658 109.283 347.893C109.283 347.893 109.283 347.168 107.84 347.406C107.334 347.49 106.821 347.517 106.309 347.484C105.62 347.434 104.965 347.164 104.441 346.715C104.441 346.715 100.485 345.088 98.945 338.643C98.945 338.643 97.8057 337.24 97.8546 336.879L100.226 337.888C100.226 337.888 99.4145 339.597 100.055 341.015C100.055 341.015 100.128 337.951 100.588 338.024C100.681 338.024 101.82 338.613 101.82 338.613C101.82 338.613 100.427 341.59 101.478 343.748C101.478 343.748 101.077 340.085 102.256 338.828L103.928 339.802C103.928 339.802 102.3 342.871 103.405 345.38C103.405 345.38 103.121 341.536 104.28 340.021L105.796 341.195C105.796 341.195 104.26 344.22 105.194 346.301C105.194 346.301 105.317 341.829 106.124 341.488C106.124 341.488 107.449 342.652 107.649 343.129C107.649 343.129 106.603 345.326 107.253 346.486C107.253 346.486 107.649 343.509 107.977 343.495C107.977 343.495 109.297 345.468 109.444 346.822C109.378 345.571 108.985 344.358 108.305 343.305C109.065 343.449 109.767 343.811 110.324 344.347C110.324 344.347 110.119 342.949 107.977 342.827C107.977 342.827 106.886 341.332 106.593 341.239C106.593 341.239 108.725 341.064 110.016 341.634C110.016 341.634 108.882 340.314 106.207 340.913L104.71 339.7C104.71 339.7 107.512 339.315 108.706 339.739C108.706 339.739 107.336 338.574 104.305 339.422L102.676 338.448C102.676 338.448 105.067 337.931 106.495 338.117C106.495 338.117 104.989 337.313 102.202 338.185L101.033 337.707C101.033 337.707 102.784 337.366 103.297 337.313C103.811 337.259 103.835 337.118 103.835 337.118C102.725 336.934 101.586 337.06 100.544 337.483C100.544 337.483 98.0746 336.548 98.1186 336.392Z" fill="#6C63FF"/>
<path opacity="0.1" d="M107.811 350.427C102.309 350.427 97.8496 349.676 97.8496 348.751C97.8496 347.825 102.309 347.075 107.811 347.075C113.312 347.075 117.772 347.825 117.772 348.751C117.772 349.676 113.312 350.427 107.811 350.427Z" fill="#6C63FF"/>
<path opacity="0.1" d="M215.817 341.488L264.869 360.394L336.567 388C339.271 382.997 343.261 376.153 348.2 368.027C365.178 339.992 393.277 296.388 418.284 258.069C446.47 214.894 470.725 178.436 470.725 178.436L453.165 173.365L309.73 131.923L215.817 341.488Z" fill="black"/>
<path d="M214.839 338.078L263.891 356.984L335.589 384.59C338.293 379.587 342.283 372.743 347.222 364.617C364.2 336.582 392.299 292.978 417.306 254.659C445.492 211.484 469.747 175.026 469.747 175.026L452.187 169.955L308.752 128.513L214.839 338.078Z" fill="white"/>
<path opacity="0.1" d="M214.839 338.078L263.891 356.984C291.287 362.669 319.244 365.23 347.222 364.617C364.2 336.582 392.299 292.978 417.306 254.659L452.187 169.955L308.752 128.513L214.839 338.078Z" fill="black"/>
<path d="M178.345 326.318C178.345 326.318 254.551 371.223 368.323 361.09L459.033 140.809L415.565 133.37L265.304 107.664L180.046 322.06L178.345 326.318Z" fill="#FFDA18"/>
<path opacity="0.1" d="M180.046 322.06C197.993 322.937 218.746 322.854 239.636 320.375C262.238 317.734 284.947 312.269 304.459 302.263C320.752 293.898 334.684 284.813 346.836 273.906C378.43 245.593 397.986 205.092 415.546 133.37L265.285 107.664L180.046 322.06Z" fill="black"/>
<path d="M124.148 309.745C124.148 309.745 180.345 320.716 237.49 313.959C260.091 311.304 282.825 305.853 302.312 295.847C318.606 287.483 332.537 278.398 344.689 267.49C383.809 232.416 404.45 178.723 425.741 70.2412C425.741 70.2412 332.342 92.6937 240.062 43.5117C240.062 43.5117 208.937 237.039 124.148 309.745Z" fill="white"/>
<path opacity="0.1" d="M237.49 313.959C260.091 311.304 282.825 305.853 302.312 295.847C318.606 287.483 332.537 278.398 344.689 267.49C311.393 264.797 306.605 246.66 306.605 246.66C281.921 285.69 237.49 313.959 237.49 313.959Z" fill="black"/>
<path opacity="0.3" d="M377.443 110.07C377.443 110.07 327.271 115.775 280.312 89.4883L277.094 99.7816C277.094 99.7816 322.019 122.098 377.443 122.098V110.07Z" fill="#6C63FF"/>
<path opacity="0.3" d="M377.443 160.874C377.443 160.874 327.564 156.865 272.038 130.131L270.16 134.408C270.16 134.408 290.595 160.027 377.443 166.72V160.874Z" fill="black"/>
<path opacity="0.3" d="M371.53 180.691C371.53 180.691 321.652 176.682 266.126 149.952L264.248 154.23C264.248 154.23 284.678 179.873 371.53 186.571V180.691Z" fill="black"/>
<path opacity="0.3" d="M366.122 202.052C366.122 202.052 316.244 198.043 260.717 171.314L258.84 175.591C258.84 175.591 279.299 201.219 366.122 207.932V202.052Z" fill="black"/>
<path opacity="0.3" d="M359.702 220.359C359.702 220.359 309.823 216.35 254.297 189.621L252.419 193.898C252.419 193.898 272.85 219.531 359.702 226.244V220.359Z" fill="black"/>
<path opacity="0.1" d="M353.785 240.196C353.785 240.196 303.906 236.187 248.38 209.457L246.502 213.734C246.502 213.734 266.937 239.368 353.785 246.076V240.196Z" fill="black"/>
<path opacity="0.3" d="M249.842 116.791L263.799 121.524L259.047 135.428L245.09 130.695L249.842 116.791Z" fill="#6C63FF"/>
<path opacity="0.3" d="M241.902 137.475L255.859 142.209L251.107 156.113L237.15 151.379L241.902 137.475Z" fill="#6C63FF"/>
<path opacity="0.3" d="M229.173 177.275L243.13 182.008L238.379 195.912L224.422 191.179L229.173 177.275Z" fill="#6C63FF"/>
<path opacity="0.3" d="M221.87 198.636L235.827 203.369L231.075 217.273L217.119 212.539L221.87 198.636Z" fill="#6C63FF"/>
<path opacity="0.3" d="M235.428 158.963L249.385 163.697L244.634 177.6L230.677 172.867L235.428 158.963Z" fill="#6C63FF"/>
<path d="M89.4926 219.005L90.0159 218.518C88.6662 218.245 87.3948 218.123 87.3948 218.123C87.3948 218.123 92.0257 201.434 99.8351 195.866C103.698 193.113 106.916 188.529 109.19 184.598C113.335 177.49 117.991 170.689 123.121 164.25L124.53 162.482L125.136 161.712C124.29 160.436 123.253 159.223 123.371 157.742C123.373 157.732 123.373 157.722 123.371 157.713C123.366 157.635 123.366 157.557 123.371 157.479C123.385 157.296 123.418 157.115 123.469 156.938L123.522 157.021C124.183 155.111 126.72 154.269 128.603 153.216C133.004 150.747 134.887 145.349 135.826 140.331C136.559 136.434 137.166 132.05 140.227 129.541C142.183 127.929 144.843 127.398 146.814 125.795C148.682 124.275 149.723 121.971 150.897 119.852C152.853 116.32 155.435 113.032 158.843 110.923C162.251 108.813 166.579 108 170.32 109.412C171.753 109.958 173.054 110.806 174.472 111.395C177.993 112.857 182.027 112.662 185.513 114.206C189.807 116.106 192.599 120.305 195.152 124.29C196.472 126.35 198.545 129.366 199.724 132.401C199.724 132.294 199.724 132.191 199.724 132.084C200.289 133.421 200.598 134.852 200.633 136.303C200.657 136.92 200.589 137.537 200.433 138.134C199.905 140.083 198.33 141.16 196.462 141.91C196.354 142.53 196.21 143.143 196.032 143.746C195.186 146.518 193.683 149.046 191.648 151.116C189.614 153.186 187.109 154.737 184.345 155.637C184.183 155.696 184.017 155.735 183.856 155.784C183.72 156.169 183.523 156.531 183.274 156.855C181.714 158.804 178.584 158.249 176.55 156.831C176.467 156.777 176.389 156.709 176.31 156.651C176.297 156.927 176.267 157.201 176.222 157.474C176.178 157.708 176.144 157.961 176.095 158.171C174.261 168.016 169.567 173.331 169.567 173.331C169.567 173.331 169.132 173.983 168.423 175.065C168.794 180.496 166.305 185.446 163.43 189.27C165.909 190.697 171.254 193.493 174.56 193.26C174.56 193.26 186.707 194.823 188.115 194.039C188.31 193.932 188.496 194.078 188.672 194.409C192.017 192.378 202.712 186.522 203.626 194.039C204.453 200.859 194.707 201.731 190.066 201.765C190.276 203.762 190.394 205.36 190.394 205.36L170.437 204.001L160.046 202.476C161.195 203.991 162.491 205.341 163.758 205.998C163.758 205.998 173.151 213.573 174.775 213.642C175.005 213.642 175.078 213.871 175.044 214.236C178.995 214.236 191.284 214.806 187.875 221.626C184.78 227.808 176.066 223.531 172.124 221.168C171.195 222.966 170.403 224.373 170.403 224.373L154.3 212.95L150.814 210.027C149.632 209.97 148.464 209.746 147.347 209.36C147.347 209.403 147.312 209.447 147.298 209.486C147.173 209.845 147.08 210.213 147.019 210.587C146.041 216.185 149.327 229.24 149.327 229.24C149.327 229.24 156.555 247.6 153.083 250.104C149.611 252.608 152.178 263.174 152.178 263.174C151.572 264.19 150.875 265.149 150.095 266.039C149.727 266.462 149.319 266.848 148.877 267.193C149.039 267.631 149.172 268.079 149.278 268.533C149.809 270.784 149.608 273.145 148.706 275.275C146.32 281.043 147.772 289.402 147.772 289.402L152.457 320.93C154.706 320.589 157.611 320.307 158.692 320.93C160.349 321.861 159.806 326.552 155.958 328.569C157.126 329.46 158.48 330.08 159.919 330.386C163.342 331.165 165.748 331.662 167.332 331.964C167.435 331.964 175.547 330.181 177.631 331.36C179.714 332.539 178.711 339.076 172.785 340.679C166.985 342.243 145.356 344.537 139.127 343.602L138.73 343.534C133.435 342.491 138.085 335.559 138.672 334.716C138.711 334.434 138.745 334.137 138.784 333.815C138.867 333.094 138.941 332.266 138.994 331.379C133.087 331.92 127.258 332.183 124.584 331.784C124.456 331.784 124.339 331.745 124.231 331.72C119.542 330.795 123.65 324.667 124.178 323.926C124.2 323.738 124.225 323.538 124.251 323.327V323.273C124.251 323.132 124.285 322.981 124.3 322.835C124.315 322.689 124.3 322.586 124.339 322.455C124.378 322.323 124.339 322.221 124.373 322.099C124.393 321.859 124.412 321.61 124.432 321.354C124.432 321.252 124.432 321.144 124.432 321.037C124.432 320.842 124.456 320.648 124.466 320.448C124.466 320.341 124.466 320.234 124.466 320.121C124.466 319.829 124.466 319.527 124.496 319.225C124.496 319.142 124.496 319.059 124.496 318.977C124.496 318.733 124.496 318.49 124.496 318.236C124.496 318.119 124.496 318.002 124.496 317.881C124.496 317.622 124.496 317.364 124.496 317.101C124.496 317.013 124.496 316.931 124.496 316.843C124.496 316.517 124.466 316.18 124.447 315.844L124.417 315.484C124.417 315.235 124.378 314.997 124.354 314.743C124.354 314.622 124.354 314.5 124.315 314.378C124.275 314.037 124.231 313.696 124.183 313.35C124.183 313.248 124.148 313.146 124.134 313.043C124.09 312.785 124.046 312.522 123.997 312.259C123.997 312.132 123.948 312.001 123.918 311.869C123.86 311.587 123.796 311.304 123.728 311.022C123.728 310.944 123.694 310.866 123.674 310.788C123.586 310.447 123.488 310.111 123.385 309.775C123.351 309.658 123.312 309.541 123.273 309.424C123.19 309.17 123.102 308.937 123.009 308.674L122.892 308.362C122.76 308.031 122.618 307.704 122.471 307.388C122.432 307.305 122.388 307.222 122.344 307.139C122.222 306.886 122.09 306.652 121.953 306.389L121.786 306.101C121.601 305.79 121.41 305.478 121.2 305.181C115.821 297.542 114.402 282.811 114.535 279.606C114.667 276.4 113.894 269.751 112.931 268.767C112.285 268.109 108.53 262.921 106.285 258.975C105.879 258.254 105.527 257.577 105.248 256.973C103.654 256.423 102.598 255.999 102.598 255.999C103.16 253.954 103.43 251.84 103.4 249.719C103.361 245.574 102.216 240.113 97.4927 235.68C90.5195 229.133 89.5464 222.644 89.4535 220.15C89.4535 219.975 89.4535 219.819 89.4535 219.687C89.4682 219.229 89.4926 219.005 89.4926 219.005Z" fill="url(#paint0_linear)"/>
<path d="M108.075 259.862C109.967 263.23 112.091 266.465 114.432 269.541C115.351 270.516 116.09 277.097 115.962 280.258C115.835 283.42 117.18 297.995 122.319 305.546C127.459 313.097 124.818 326.147 124.818 326.147L133.019 329.012H142.872L149.66 326.99L151.449 322.07C151.449 322.07 149.063 321.705 143.136 320.302C141.492 319.968 140.003 319.108 138.895 317.853C137.787 316.598 137.121 315.017 136.999 313.35L132.838 284.399C132.838 284.399 131.611 277.092 133.635 272.036C134.205 270.612 134.442 269.078 134.327 267.55C134.211 266.022 133.747 264.541 132.97 263.218L132.838 263.014C132.838 263.014 126.417 257.962 119.874 254.8C114.08 252.014 108.202 250.689 106.534 255.633C106.319 256.272 107.023 257.913 108.075 259.862Z" fill="#A5636D"/>
<path opacity="0.05" d="M108.075 259.862C109.967 263.23 112.091 266.465 114.432 269.541C115.351 270.516 116.09 277.097 115.962 280.259C115.835 283.42 117.18 297.995 122.319 305.546C125.938 310.871 125.698 318.918 125.253 323.21C125.063 325.007 124.828 326.133 124.828 326.133L133.029 328.997H142.872L149.66 326.99L151.449 322.07C151.449 322.07 150.853 321.977 149.493 321.714C148.134 321.451 146.07 321.003 143.107 320.302C141.468 319.963 139.986 319.1 138.883 317.846C137.781 316.591 137.12 315.013 136.999 313.35L132.838 284.399C132.838 284.399 131.611 277.092 133.635 272.036C134.205 270.612 134.442 269.078 134.327 267.55C134.211 266.022 133.747 264.541 132.97 263.218L132.838 263.014C132.838 263.014 126.417 257.962 119.874 254.8C114.08 252.014 108.202 250.689 106.534 255.633C106.319 256.272 107.023 257.913 108.075 259.862Z" fill="black"/>
<path opacity="0.1" d="M124.818 326.152L133.019 329.017H142.872L149.66 326.99L151.449 322.07C151.449 322.07 150.853 321.977 149.493 321.714C149.589 322.608 149.353 323.506 148.83 324.239C148.306 324.971 147.532 325.487 146.652 325.689L142.799 325.821C142.256 325.821 141.708 325.85 141.171 325.85C135.75 325.853 130.367 324.963 125.239 323.215C125.043 325.012 124.818 326.152 124.818 326.152Z" fill="black"/>
<path d="M142.804 326.649L146.662 326.518C146.662 326.518 150.261 325.758 149.381 321.69C149.381 321.69 156.325 320.121 158.1 321.159C159.875 322.197 159.019 327.921 154.002 329.324C149.112 330.692 130.794 332.704 125.527 331.881L125.19 331.823C120.417 330.848 125.19 324.028 125.19 324.028C130.853 325.959 136.822 326.847 142.804 326.649Z" fill="#BEBED0"/>
<path d="M119.043 260.982C119.302 261.499 119.581 262.034 119.899 262.595C122.319 266.979 126.202 272.498 126.882 273.214C127.919 274.315 128.745 281.739 128.613 285.325C128.481 288.91 129.987 305.337 135.787 313.862C138.755 318.246 139.425 324.213 139.376 329.017C139.361 330.644 139.265 332.27 139.087 333.888C138.872 335.871 138.598 337.108 138.598 337.108L147.85 340.338H158.985L166.648 338.068L168.653 332.495C168.653 332.495 167.983 332.388 166.476 332.091C164.97 331.793 162.623 331.296 159.269 330.507C157.418 330.126 155.742 329.154 154.495 327.739C153.248 326.324 152.498 324.542 152.359 322.664L147.669 289.992C147.669 289.992 146.286 281.735 148.564 276.035C149.424 273.919 149.616 271.593 149.112 269.366C148.839 268.115 148.342 266.924 147.645 265.849C147.645 265.849 145.855 264.446 143.156 262.59C141.963 261.771 140.579 260.865 139.092 259.949C132.559 255.921 123.967 251.809 119.85 254.805C118.942 255.488 118.277 256.442 117.953 257.528C117.786 258.093 118.251 259.375 119.043 260.982Z" fill="#A5636D"/>
<path opacity="0.1" d="M138.623 337.113L147.875 340.343H158.985L166.648 338.073L168.653 332.5C168.653 332.5 167.983 332.393 166.476 332.095C166.573 332.756 166.504 333.429 166.278 334.057C166.051 334.685 165.672 335.248 165.176 335.695C164.405 336.348 163.43 336.713 162.418 336.728L158.912 336.84C158.3 336.84 157.684 336.874 157.073 336.874C150.954 336.873 144.877 335.865 139.087 333.893C138.872 335.876 138.623 337.113 138.623 337.113Z" fill="black"/>
<path d="M158.916 337.668L162.418 337.551C163.431 337.534 164.406 337.169 165.181 336.519C166.071 335.73 166.838 334.366 166.34 332.071C166.34 332.071 174.164 330.303 176.183 331.472C178.203 332.641 177.215 339.105 171.557 340.689C166.017 342.233 145.361 344.503 139.415 343.577L139.038 343.509C133.659 342.408 139.038 334.702 139.038 334.702C145.428 336.888 152.164 337.893 158.916 337.668Z" fill="#BEBED0"/>
<path opacity="0.1" d="M108.075 259.862C111.424 261.026 116.344 262.57 119.043 262.634C119.322 262.644 119.602 262.631 119.879 262.595C121.767 262.336 127.601 262.751 132.95 263.228C135.097 263.418 137.161 263.618 138.867 263.793C141.41 264.056 143.161 264.246 143.161 264.246V262.595C141.968 261.776 140.584 260.87 139.097 259.954C132.564 255.926 123.972 251.814 119.855 254.81C114.06 252.024 108.182 250.699 106.515 255.643C106.319 256.272 107.023 257.913 108.075 259.862Z" fill="black"/>
<path d="M92.0012 221.441C92.0941 223.911 93.0232 230.321 99.6835 236.8C108.173 245.057 104.574 256.915 104.574 256.915C104.574 256.915 114.696 260.875 119.063 260.982C119.342 260.993 119.622 260.98 119.899 260.943C122.52 260.578 132.926 261.538 138.906 262.142C141.449 262.405 143.2 262.595 143.2 262.595V227.52L96.2898 216.175L92.0403 220.389C92.0035 220.738 91.9904 221.09 92.0012 221.441Z" fill="#5C5C8E"/>
<g opacity="0.1">
<path opacity="0.1" d="M142.408 262.161L143.18 262.244V262.614C143.18 262.614 141.43 262.424 138.887 262.161C134.593 261.728 128.036 261.119 123.698 260.938C126.701 260.666 136.618 261.576 142.408 262.161Z" fill="black"/>
<path opacity="0.1" d="M92.0208 220.408L96.2702 216.189L99.1016 216.896L95.5416 220.428C95.5176 220.779 95.5176 221.133 95.5416 221.485C95.6345 223.95 96.5637 230.365 103.224 236.844C111.713 245.096 108.114 256.958 108.114 256.958C108.114 256.958 116.491 260.232 121.288 260.909C120.83 260.908 120.373 260.932 119.918 260.982C119.642 261.021 119.362 261.035 119.082 261.026C114.715 260.919 104.593 256.958 104.593 256.958C104.593 256.958 108.212 245.096 99.7031 236.844C93.0428 230.365 92.1137 223.95 92.0208 221.485C91.9959 221.126 91.9959 220.766 92.0208 220.408Z" fill="black"/>
</g>
<path d="M185.743 196.665C185.743 196.665 199.924 186.863 200.966 195.69C202.008 204.517 185.743 203.256 185.743 203.256V196.665Z" fill="#A5636D"/>
<path d="M161.293 190.166C161.293 190.166 168.966 195.223 173.21 194.911C173.21 194.911 184.809 196.46 186.159 195.686C187.509 194.911 188.33 206.89 188.33 206.89L169.259 205.55L157.034 203.689C157.034 203.689 150.921 199.977 150.921 196.777C150.921 193.576 161.293 190.166 161.293 190.166Z" fill="#F7CDDD"/>
<path opacity="0.05" d="M161.293 190.166C161.293 190.166 168.966 195.223 173.21 194.911C173.21 194.911 184.809 196.46 186.159 195.686C187.509 194.911 188.33 206.89 188.33 206.89L169.259 205.55L157.034 203.689C157.034 203.689 150.921 199.977 150.921 196.777C150.921 193.576 161.293 190.166 161.293 190.166Z" fill="black"/>
<path d="M172.545 215.673C172.545 215.673 189.792 214.962 185.929 222.98C182.066 230.999 168.995 221.265 168.995 221.265L172.545 215.673Z" fill="#A5636D"/>
<path d="M155.195 198.628C155.195 198.628 169.176 188.208 167.205 175.518C165.234 162.828 155.195 185.231 155.195 185.231V198.628Z" fill="#5C5C8E"/>
<path d="M159.058 141.096C159.063 145.661 160.846 150.046 164.031 153.328C164.807 154.135 165.662 154.861 166.584 155.496C168.345 156.719 170.308 157.623 172.384 158.166C173.209 158.371 174.047 158.519 174.892 158.609C175.499 158.667 176.11 158.702 176.731 158.702C178.714 158.713 180.684 158.383 182.555 157.727C185.617 156.662 188.326 154.779 190.385 152.282C192.444 149.786 193.774 146.773 194.229 143.574C194.684 140.375 194.246 137.113 192.964 134.145C191.681 131.177 189.604 128.618 186.959 126.748C184.314 124.878 181.203 123.769 177.968 123.543C174.732 123.317 171.497 123.982 168.616 125.466C165.734 126.95 163.319 129.195 161.633 131.955C159.947 134.715 159.056 137.885 159.058 141.116V141.096Z" fill="#A5636D"/>
<path opacity="0.1" d="M92.0012 221.441C93.5856 221.733 95.5416 222.259 95.5416 223.078C95.5416 224.456 117.635 231.885 117.635 231.885C117.635 231.885 116.808 233.804 119.014 237.107C121.219 240.41 139.175 259.389 139.175 259.389L139.117 259.954L138.887 262.142L137.792 272.596C137.792 272.596 144.696 270.121 146.907 270.394C147.621 270.486 148.374 270.028 149.112 269.371C148.839 268.12 148.342 266.929 147.645 265.854C147.645 265.854 145.855 264.451 143.156 262.595V227.52L96.2457 216.175L91.9963 220.389C91.9741 220.739 91.9758 221.091 92.0012 221.441Z" fill="black"/>
<path d="M90.0159 219.502C90.0159 219.502 95.5416 220.048 95.5416 221.426C95.5416 222.805 117.635 230.234 117.635 230.234C117.635 230.234 116.808 232.153 119.014 235.456C121.219 238.759 139.175 257.743 139.175 257.743L137.792 270.944C137.792 270.944 144.696 268.47 146.907 268.742C147.885 268.864 148.985 267.958 149.889 266.901C150.637 266.019 151.303 265.072 151.88 264.071C151.88 264.071 149.391 253.612 152.706 251.137C156.022 248.662 149.117 230.507 149.117 230.507C149.117 230.507 145.997 217.597 146.916 212.058C146.973 211.688 147.062 211.323 147.18 210.967C147.18 210.928 147.205 210.884 147.22 210.845C149.176 205.555 170.379 161.157 170.379 161.157C170.365 159.897 170.277 158.64 170.115 157.391C170.071 157.045 170.012 156.685 169.948 156.319C169.841 155.663 169.697 155.012 169.518 154.371C169.406 153.96 169.272 153.555 169.117 153.158C168.462 151.482 167.459 150.191 165.963 150.162C165.963 150.162 164.305 148.335 160.418 147.838C157.572 147.468 153.508 147.838 148.007 150.162C135.034 155.657 131.992 155.939 131.992 155.939L125.474 164.464L124.134 166.213C119.222 172.595 114.776 179.318 110.828 186.332C108.657 190.23 105.581 194.755 101.894 197.478C94.4365 202.998 90.0159 219.502 90.0159 219.502Z" fill="#F7CDDD"/>
<path opacity="0.1" d="M138.417 187.691C138.417 187.691 119.982 192.232 112.838 203.68L138.417 187.691Z" fill="black"/>
<path opacity="0.1" d="M132.721 207.806C132.721 207.806 129.234 231.125 130.202 232.879C131.17 234.633 132.721 207.806 132.721 207.806Z" fill="black"/>
<path opacity="0.1" d="M133.967 219.775C135.307 221.524 140.75 235.042 140.75 235.042L139.18 257.743L137.796 270.944C137.796 270.944 144.696 268.47 146.907 268.742C147.885 268.864 148.99 267.958 149.889 266.901C148.457 259.17 145.391 242.992 144.838 242.68C144.109 242.266 140.378 229.269 140.183 225.63C139.987 221.991 134.804 213.88 134.804 213.88C134.804 213.88 132.618 218.026 133.967 219.775Z" fill="black"/>
<path opacity="0.1" d="M139.175 197.493C139.518 198.521 140.046 204.508 140.046 204.508C140.427 209.779 144.447 211.503 146.916 212.058C146.973 211.688 147.062 211.323 147.18 210.967C148.838 206.295 170.379 161.176 170.379 161.176C170.356 158.887 170.067 156.608 169.518 154.385C164.829 153.012 157.405 155.126 157.405 155.126C155.259 154.843 148.256 168.712 148.256 168.712C148.256 168.712 143.591 179.332 143.078 180.779C142.564 182.226 143.078 184.598 142.872 185.426C142.667 186.254 140.486 186.966 140.178 188.106C139.87 189.245 140.07 191.516 139.865 191.92C139.66 192.324 138.828 196.46 139.175 197.493Z" fill="black"/>
<path d="M140.833 196.665C141.175 197.697 141.704 203.68 141.704 203.68C142.017 208.064 144.853 210.012 147.22 210.845C148.286 211.225 149.403 211.447 150.535 211.503L153.865 214.387L169.244 225.664C169.244 225.664 174.975 215.108 173.42 215.049C171.865 214.991 162.897 207.489 162.897 207.489C160.154 206.028 157.405 201.156 156.129 198.652C156.203 198.354 156.258 198.051 156.295 197.746C156.848 193.074 168.447 175.187 168.447 175.187C168.447 175.187 172.931 169.93 174.677 160.192C174.726 159.968 174.76 159.739 174.804 159.505C174.854 159.202 174.883 158.896 174.892 158.59C175.103 154.843 172.364 153.479 169.117 153.158C167.421 153.024 165.716 153.076 164.031 153.314C162.353 153.524 160.692 153.85 159.058 154.288C157.67 154.103 154.247 159.856 152.002 163.934C150.794 166.145 149.924 167.87 149.924 167.87C149.924 167.87 145.259 178.494 144.745 179.936C144.232 181.378 144.745 183.76 144.54 184.584C144.334 185.407 142.153 186.128 141.845 187.268C141.537 188.408 141.738 190.678 141.532 191.082C141.327 191.486 140.486 195.632 140.833 196.665Z" fill="#F7CDDD"/>
<path opacity="0.1" d="M122.994 172.863C125.928 175.849 130.667 175.859 134.471 174.324C138.276 172.79 141.498 170.042 145.024 167.904C147.312 166.511 149.738 165.371 151.992 163.934C152.325 163.719 152.647 163.505 152.97 163.281C155.572 161.449 157.826 159.096 160.52 157.435C162.323 156.241 164.421 155.567 166.584 155.486C167.58 155.478 168.566 155.684 169.474 156.091C169.642 156.159 169.806 156.238 169.963 156.329C170.85 156.836 171.671 157.45 172.408 158.156C173.171 158.838 173.9 159.564 174.702 160.202C174.75 159.978 174.785 159.749 174.829 159.515C174.878 159.212 174.908 158.906 174.917 158.599C175.523 158.658 176.134 158.692 176.755 158.692C178.739 158.703 180.709 158.374 182.579 157.718C182.579 157.644 182.579 157.571 182.623 157.498C183.284 154.03 184.477 150.357 187.279 148.408C188.902 147.278 191.494 146.815 193.743 145.973C194.523 143.269 194.641 140.42 194.088 137.662C193.534 134.904 192.326 132.318 190.564 130.121C188.801 127.924 186.536 126.179 183.958 125.034C181.38 123.888 178.563 123.374 175.745 123.535C172.926 123.696 170.187 124.528 167.758 125.96C165.328 127.392 163.278 129.384 161.78 131.767C160.281 134.151 159.378 136.857 159.145 139.66C158.913 142.463 159.357 145.281 160.442 147.877C157.596 147.507 153.533 147.877 148.031 150.201C135.058 155.696 132.016 155.978 132.016 155.978L125.498 164.503C126.202 165.575 126.999 166.632 127.073 167.884C127.195 170.179 124.95 171.781 122.994 172.863Z" fill="black"/>
<path d="M187.259 146.747C184.457 148.696 183.264 152.364 182.599 155.827C182.394 156.909 182.198 158.049 181.533 158.906C180.066 160.826 177.054 160.285 175.112 158.906C173.171 157.528 171.64 155.438 169.474 154.463C166.599 153.168 163.215 154.113 160.52 155.793C157.826 157.474 155.572 159.827 152.97 161.639C150.452 163.407 147.645 164.669 145.024 166.262C141.498 168.401 138.276 171.163 134.471 172.683C130.667 174.202 125.914 174.198 122.999 171.221C124.955 170.14 127.2 168.542 127.048 166.223C126.896 163.904 124.187 162.175 124.368 159.798C124.549 157.42 127.356 156.49 129.371 155.321C133.576 152.885 135.371 147.527 136.271 142.582C136.97 138.714 137.547 134.393 140.447 131.909C142.32 130.311 144.848 129.79 146.735 128.206C148.52 126.701 149.513 124.426 150.647 122.327C152.52 118.834 154.98 115.585 158.232 113.495C161.484 111.405 165.621 110.572 169.19 112.004C170.56 112.545 171.807 113.383 173.156 113.953C176.521 115.414 180.369 115.205 183.699 116.729C187.802 118.61 190.467 122.76 192.907 126.701C194.971 130.077 199.064 136.03 197.905 140.414C196.751 144.872 190.301 144.633 187.259 146.747Z" fill="#4C3E42"/>
<g opacity="0.1">
<path opacity="0.1" d="M124.373 159.53C124.388 159.349 124.419 159.169 124.466 158.994C125.209 160.158 126.134 161.288 126.222 162.652C126.241 162.968 126.214 163.284 126.143 163.592C125.317 162.282 124.256 161.05 124.373 159.53Z" fill="black"/>
<path opacity="0.1" d="M133.645 169.126C137.449 167.607 140.667 164.844 144.193 162.706C146.819 161.113 149.625 159.851 152.144 158.083C154.745 156.251 157 153.898 159.694 152.237C162.388 150.576 165.767 149.611 168.648 150.902C170.814 151.877 172.34 153.947 174.286 155.35C176.232 156.753 179.215 157.299 180.707 155.35C181.372 154.493 181.567 153.353 181.773 152.271C182.433 148.808 183.631 145.14 186.428 143.191C189.474 141.072 195.924 141.311 197.093 136.858C197.288 136.062 197.339 135.237 197.245 134.422C197.993 136.41 198.379 138.407 197.924 140.146C196.751 144.618 190.301 144.38 187.259 146.479C184.457 148.428 183.264 152.101 182.599 155.564C182.394 156.646 182.198 157.786 181.538 158.643C180.071 160.562 177.059 160.022 175.112 158.619C173.166 157.216 171.645 155.15 169.474 154.176C166.599 152.885 163.215 153.83 160.52 155.511C157.826 157.191 155.572 159.544 152.97 161.357C150.452 163.13 147.645 164.387 145.024 165.98C141.498 168.123 138.276 170.885 134.471 172.405C130.667 173.925 125.914 173.915 122.999 170.944C123.753 170.54 124.468 170.069 125.136 169.536C127.786 170.505 130.95 170.203 133.645 169.126Z" fill="black"/>
</g>
<path d="M220.194 202.447L181.073 187.891C180.616 187.72 180.129 187.641 179.641 187.658C179.152 187.674 178.672 187.787 178.227 187.989C177.783 188.19 177.382 188.477 177.049 188.834C176.716 189.19 176.457 189.608 176.286 190.064C176.115 190.52 176.036 191.005 176.054 191.492C176.071 191.978 176.184 192.457 176.387 192.899C176.59 193.342 176.879 193.741 177.237 194.073C177.594 194.404 178.014 194.663 178.472 194.833L217.592 209.394L225.974 208.556L220.194 202.447Z" fill="#5C5C8E"/>
<path opacity="0.1" d="M177.474 188.895C177.129 189.817 177.165 190.837 177.575 191.732C177.985 192.628 178.735 193.324 179.66 193.669L218.78 208.225L225.079 207.596L225.983 208.57L217.602 209.408L178.482 194.848C178.024 194.677 177.604 194.419 177.246 194.087C176.889 193.756 176.6 193.357 176.397 192.914C176.194 192.471 176.081 191.993 176.063 191.506C176.046 191.02 176.125 190.535 176.296 190.079C176.582 189.31 177.117 188.659 177.816 188.227C177.682 188.439 177.567 188.662 177.474 188.895Z" fill="white"/>
<path d="M220.194 202.447L217.587 209.394L224.467 208.707L225.974 208.556L223.915 206.383L220.194 202.447Z" fill="#EFC8C4"/>
<path d="M223.92 206.383C223.758 206.501 223.622 206.65 223.519 206.822C223.454 206.923 223.419 207.04 223.419 207.16C223.419 207.28 223.454 207.398 223.519 207.499C223.631 207.607 223.76 207.697 223.9 207.767C224.059 207.871 224.192 208.01 224.288 208.172C224.385 208.335 224.443 208.518 224.458 208.707L225.964 208.556L223.92 206.383Z" fill="#727A9C"/>
<path d="M254.341 127.179L260.937 123.973C261.031 123.927 261.116 123.864 261.185 123.786C261.254 123.707 261.307 123.616 261.342 123.518C261.376 123.419 261.39 123.315 261.383 123.211C261.377 123.107 261.35 123.005 261.304 122.911L260.605 121.479C260.559 121.385 260.496 121.301 260.417 121.231C260.339 121.162 260.248 121.108 260.148 121.074C260.049 121.04 259.944 121.026 259.84 121.033C259.735 121.04 259.633 121.067 259.539 121.114L255.094 123.272L250.453 113.792C250.36 113.603 250.196 113.458 249.997 113.388C249.797 113.319 249.578 113.331 249.387 113.422L247.949 114.123C247.855 114.168 247.77 114.232 247.701 114.31C247.631 114.388 247.577 114.479 247.543 114.578C247.509 114.677 247.495 114.781 247.502 114.885C247.509 114.99 247.536 115.091 247.583 115.185L253.275 126.813C253.321 126.907 253.385 126.991 253.463 127.06C253.541 127.129 253.633 127.182 253.732 127.216C253.831 127.25 253.935 127.264 254.04 127.258C254.144 127.251 254.247 127.224 254.341 127.179Z" fill="#3ACC6C"/>
<path d="M239.93 168.181L246.526 164.976C246.62 164.93 246.705 164.867 246.774 164.788C246.843 164.71 246.897 164.619 246.931 164.521C246.965 164.422 246.979 164.318 246.972 164.214C246.966 164.11 246.939 164.008 246.893 163.914L246.194 162.482C246.1 162.292 245.935 162.147 245.734 162.079C245.533 162.01 245.314 162.024 245.123 162.116L240.683 164.275L236.047 154.785C235.954 154.596 235.79 154.451 235.591 154.381C235.391 154.312 235.172 154.324 234.981 154.415L233.548 155.116C233.454 155.162 233.369 155.225 233.299 155.303C233.229 155.381 233.176 155.472 233.141 155.57C233.107 155.669 233.092 155.774 233.098 155.878C233.104 155.982 233.131 156.084 233.177 156.178L238.869 167.806C238.963 167.995 239.129 168.139 239.329 168.207C239.529 168.276 239.749 168.263 239.94 168.172L239.93 168.181Z" fill="#3ACC6C"/>
<path d="M246.399 147.97L252.996 144.764C253.186 144.672 253.332 144.509 253.401 144.31C253.471 144.111 253.459 143.893 253.368 143.702L252.663 142.27C252.618 142.176 252.554 142.092 252.476 142.022C252.398 141.953 252.306 141.9 252.207 141.866C252.108 141.832 252.003 141.818 251.898 141.824C251.794 141.831 251.691 141.858 251.597 141.905L247.152 144.063L242.512 134.569C242.466 134.475 242.402 134.391 242.323 134.322C242.245 134.253 242.154 134.2 242.055 134.166C241.956 134.132 241.851 134.118 241.746 134.124C241.642 134.131 241.54 134.157 241.446 134.203L240.008 134.9C239.819 134.994 239.674 135.159 239.605 135.358C239.537 135.558 239.55 135.776 239.641 135.967L245.338 147.604C245.384 147.698 245.448 147.782 245.526 147.851C245.605 147.92 245.696 147.973 245.795 148.007C245.894 148.041 245.999 148.055 246.103 148.049C246.208 148.042 246.31 148.016 246.404 147.97H246.399Z" fill="#3ACC6C"/>
<path d="M233.671 186.693L240.267 183.487C240.361 183.442 240.445 183.378 240.515 183.3C240.584 183.222 240.637 183.131 240.671 183.032C240.705 182.934 240.72 182.829 240.713 182.725C240.707 182.621 240.68 182.519 240.634 182.425L239.935 180.993C239.889 180.9 239.825 180.816 239.746 180.747C239.668 180.678 239.577 180.625 239.478 180.591C239.379 180.557 239.274 180.543 239.169 180.549C239.065 180.555 238.963 180.582 238.869 180.628L234.424 182.786L229.783 173.306C229.689 173.117 229.524 172.971 229.324 172.902C229.123 172.833 228.904 172.845 228.712 172.936L227.279 173.637C227.185 173.683 227.1 173.746 227.03 173.824C226.961 173.902 226.907 173.993 226.873 174.092C226.839 174.191 226.825 174.295 226.832 174.4C226.838 174.504 226.866 174.606 226.912 174.699L232.6 186.328C232.694 186.516 232.86 186.66 233.06 186.729C233.26 186.797 233.48 186.784 233.671 186.693Z" fill="#3ACC6C"/>
<path d="M480.295 312.551C480.295 312.551 477.385 316.341 481.635 322.06C485.884 327.779 489.395 332.612 487.992 336.187C487.992 336.187 481.576 325.563 476.358 325.417C471.141 325.271 474.554 318.943 480.295 312.551Z" fill="#3ACC6C"/>
<path opacity="0.1" d="M480.295 312.551C480.04 312.917 479.839 313.317 479.698 313.74C474.608 319.702 471.874 325.266 476.789 325.431C481.351 325.558 486.823 333.684 488.129 335.734C488.089 335.9 488.039 336.063 487.977 336.222C487.977 336.222 481.561 325.597 476.344 325.451C471.126 325.305 474.554 318.943 480.295 312.551Z" fill="black"/>
<path d="M474.886 317.384C474.886 318.714 475.038 319.819 475.224 319.819C475.41 319.819 475.556 318.738 475.556 317.384C475.556 316.029 475.37 316.677 475.185 316.677C474.999 316.677 474.886 316.049 474.886 317.384Z" fill="#FFD037"/>
<path d="M473.033 318.972C474.207 319.61 475.234 320 475.322 319.834C475.41 319.668 474.529 319.025 473.366 318.373C472.202 317.72 472.656 318.197 472.568 318.373C472.48 318.548 471.855 318.334 473.033 318.972Z" fill="#FFD037"/>
<path d="M495.659 312.551C495.659 312.551 498.564 316.341 494.314 322.06C490.065 327.779 486.559 332.612 487.957 336.187C487.957 336.187 494.368 325.563 499.591 325.417C504.813 325.271 501.4 318.943 495.659 312.551Z" fill="#3ACC6C"/>
<path opacity="0.1" d="M495.659 312.551C495.911 312.918 496.11 313.318 496.251 313.74C501.346 319.702 504.075 325.266 499.161 325.431C494.603 325.558 489.131 333.684 487.821 335.734C487.862 335.9 487.914 336.063 487.977 336.222C487.977 336.222 494.388 325.553 499.62 325.407C504.853 325.261 501.4 318.943 495.659 312.551Z" fill="black"/>
<path d="M501.063 317.384C501.063 318.714 500.916 319.819 500.73 319.819C500.544 319.819 500.393 318.738 500.393 317.384C500.393 316.029 500.579 316.677 500.764 316.677C500.95 316.677 501.063 316.049 501.063 317.384Z" fill="#FFD037"/>
<path d="M502.921 318.972C501.742 319.61 500.72 320 500.632 319.834C500.544 319.668 501.425 319.025 502.588 318.373C503.752 317.72 503.302 318.197 503.39 318.373C503.478 318.548 504.095 318.334 502.921 318.972Z" fill="#FFD037"/>
<path opacity="0.1" d="M487.972 365.163C471.176 365.163 457.561 363.082 457.561 360.515C457.561 357.949 471.176 355.868 487.972 355.868C504.768 355.868 518.383 357.949 518.383 360.515C518.383 363.082 504.768 365.163 487.972 365.163Z" fill="#6C63FF"/>
<path d="M472.324 331.072L472.471 332.256L472.671 333.927L472.759 334.624L472.96 336.295L473.053 336.991L473.253 338.662L475.581 357.661C475.791 359.356 478.573 360.681 481.938 360.681H494.021C497.381 360.681 500.158 359.356 500.378 357.661L502.706 338.662L502.911 336.991L502.994 336.295L503.205 334.624L503.288 333.927L503.493 332.256L503.64 331.072C503.752 330.098 502.251 329.299 500.349 329.299H475.61C473.703 329.299 472.202 330.113 472.324 331.072Z" fill="#65617D"/>
<path d="M472.466 332.256L472.671 333.927H503.278L503.478 332.256H472.466Z" fill="#9D9CB5"/>
<path d="M472.754 334.624L472.96 336.295H502.985L503.19 334.624H472.754Z" fill="#9D9CB5"/>
<path d="M473.048 336.991L473.253 338.662H502.696L502.901 336.991H473.048Z" fill="#9D9CB5"/>
<path opacity="0.1" d="M109.631 383.93C101.551 383.93 95 382.826 95 381.465C95 380.104 101.551 379 109.631 379C117.711 379 124.262 380.104 124.262 381.465C124.262 382.826 117.711 383.93 109.631 383.93Z" fill="#6C63FF"/>
<defs>
<linearGradient id="paint0_linear" x1="145.513" y1="343.792" x2="145.513" y2="108.691" gradientUnits="userSpaceOnUse">
<stop stop-color="#808080" stop-opacity="0.25"/>
<stop offset="0.54" stop-color="#808080" stop-opacity="0.12"/>
<stop offset="1" stop-color="#808080" stop-opacity="0.1"/>
</linearGradient>
</defs>
</svg>
