<svg width="111" height="29" viewBox="0 0 111 29" fill="none" xmlns="http://www.w3.org/2000/svg">
<path d="M14.3672 8.78516H9.14062V23H5.625V8.78516H0.46875V5.9375H14.3672V8.78516ZM13.1953 16.543C13.1953 15.2852 13.4375 14.1641 13.9219 13.1797C14.4062 12.1953 15.1016 11.4336 16.0078 10.8945C16.9219 10.3555 17.9805 10.0859 19.1836 10.0859C20.8945 10.0859 22.2891 10.6094 23.3672 11.6562C24.4531 12.7031 25.0586 14.125 25.1836 15.9219L25.207 16.7891C25.207 18.7344 24.6641 20.2969 23.5781 21.4766C22.4922 22.6484 21.0352 23.2344 19.207 23.2344C17.3789 23.2344 15.918 22.6484 14.8242 21.4766C13.7383 20.3047 13.1953 18.7109 13.1953 16.6953V16.543ZM16.582 16.7891C16.582 17.9922 16.8086 18.9141 17.2617 19.5547C17.7148 20.1875 18.3633 20.5039 19.207 20.5039C20.0273 20.5039 20.668 20.1914 21.1289 19.5664C21.5898 18.9336 21.8203 17.9258 21.8203 16.543C21.8203 15.3633 21.5898 14.4492 21.1289 13.8008C20.668 13.1523 20.0195 12.8281 19.1836 12.8281C18.3555 12.8281 17.7148 13.1523 17.2617 13.8008C16.8086 14.4414 16.582 15.4375 16.582 16.7891ZM27.5156 23V5.9375H32.7656C34.2656 5.9375 35.6055 6.27734 36.7852 6.95703C37.9727 7.62891 38.8984 8.58984 39.5625 9.83984C40.2266 11.082 40.5586 12.4961 40.5586 14.082V14.8672C40.5586 16.4531 40.2305 17.8633 39.5742 19.0977C38.9258 20.332 38.0078 21.2891 36.8203 21.9688C35.6328 22.6484 34.293 22.9922 32.8008 23H27.5156ZM31.0312 8.78516V20.1758H32.7305C34.1055 20.1758 35.1562 19.7266 35.8828 18.8281C36.6094 17.9297 36.9805 16.6445 36.9961 14.9727V14.0703C36.9961 12.3359 36.6367 11.0234 35.918 10.1328C35.1992 9.23438 34.1484 8.78516 32.7656 8.78516H31.0312ZM42.375 16.543C42.375 15.2852 42.6172 14.1641 43.1016 13.1797C43.5859 12.1953 44.2812 11.4336 45.1875 10.8945C46.1016 10.3555 47.1602 10.0859 48.3633 10.0859C50.0742 10.0859 51.4688 10.6094 52.5469 11.6562C53.6328 12.7031 54.2383 14.125 54.3633 15.9219L54.3867 16.7891C54.3867 18.7344 53.8438 20.2969 52.7578 21.4766C51.6719 22.6484 50.2148 23.2344 48.3867 23.2344C46.5586 23.2344 45.0977 22.6484 44.0039 21.4766C42.918 20.3047 42.375 18.7109 42.375 16.6953V16.543ZM45.7617 16.7891C45.7617 17.9922 45.9883 18.9141 46.4414 19.5547C46.8945 20.1875 47.543 20.5039 48.3867 20.5039C49.207 20.5039 49.8477 20.1914 50.3086 19.5664C50.7695 18.9336 51 17.9258 51 16.543C51 15.3633 50.7695 14.4492 50.3086 13.8008C49.8477 13.1523 49.1992 12.8281 48.3633 12.8281C47.5352 12.8281 46.8945 13.1523 46.4414 13.8008C45.9883 14.4414 45.7617 15.4375 45.7617 16.7891ZM66.1879 23H57.0919V6.2H58.7239V21.56H66.3079L66.1879 23ZM70.2774 10.88V23H68.7174V11L70.2774 10.88ZM69.4374 7.784C69.1174 7.784 68.8694 7.68 68.6934 7.472C68.5334 7.264 68.4534 7 68.4534 6.68C68.4534 6.36 68.5414 6.104 68.7174 5.912C68.9094 5.704 69.1654 5.6 69.4854 5.6C69.8054 5.6 70.0614 5.704 70.2534 5.912C70.4614 6.104 70.5654 6.376 70.5654 6.728C70.5654 7.08 70.4534 7.344 70.2294 7.52C70.0214 7.696 69.7574 7.784 69.4374 7.784ZM80.1388 12.584C79.5628 12.392 78.7788 12.296 77.7868 12.296C76.7948 12.296 76.0268 12.472 75.4828 12.824C74.9388 13.176 74.6668 13.616 74.6668 14.144C74.6668 14.656 74.8268 15.032 75.1468 15.272C75.4668 15.512 75.8668 15.72 76.3468 15.896C76.8268 16.056 77.3468 16.216 77.9068 16.376C78.4828 16.536 79.0108 16.744 79.4908 17C80.6108 17.576 81.1708 18.432 81.1708 19.568C81.1708 20.704 80.7788 21.576 79.9948 22.184C79.2268 22.792 78.0988 23.096 76.6108 23.096C75.8588 23.096 75.1308 23.024 74.4268 22.88C73.7388 22.72 73.2108 22.504 72.8428 22.232L73.3708 20.96C73.7388 21.28 74.4828 21.512 75.6028 21.656C75.9548 21.704 76.3148 21.728 76.6828 21.728C77.5148 21.728 78.2108 21.56 78.7708 21.224C79.3308 20.872 79.6108 20.344 79.6108 19.64C79.6108 19.16 79.4508 18.784 79.1308 18.512C78.8108 18.24 78.4108 18.016 77.9308 17.84C77.4508 17.648 76.9228 17.48 76.3468 17.336C75.7868 17.192 75.2668 17.008 74.7868 16.784C74.3068 16.544 73.9068 16.24 73.5868 15.872C73.2668 15.488 73.1068 14.976 73.1068 14.336C73.1068 13.296 73.5068 12.464 74.3068 11.84C75.1068 11.216 76.1788 10.904 77.5228 10.904C77.8588 10.904 78.2028 10.928 78.5548 10.976C78.9068 11.008 79.2268 11.04 79.5148 11.072L80.5228 11.24L80.1388 12.584ZM88.5219 22.568C88.2339 22.856 87.7139 23 86.9619 23C85.9059 23 85.1939 22.728 84.8259 22.184C84.2019 21.592 83.8899 20.792 83.8899 19.784V12.392H82.5459L82.7619 11H83.8899V8.624L85.4499 8.48V11H88.2339V12.392H85.4499V20.168C85.4499 21.096 85.9299 21.56 86.8899 21.56C87.3059 21.56 87.7539 21.464 88.2339 21.272L88.5219 22.568Z" fill="black"/>
<path d="M110.645 6.02374C110.645 6.02374 91.9775 4.92287 94.1807 17.7146C94.1807 17.7146 93.7392 19.9725 95.8365 21C95.8365 21 95.8718 20.0502 97.7527 20.374C98.422 20.4842 99.1023 20.5161 99.7793 20.469C100.695 20.4062 101.566 20.0548 102.261 19.4674C102.261 19.4674 107.506 17.3477 109.546 8.96373C109.546 8.96373 111.056 7.13324 110.998 6.66267L107.846 7.95782C107.846 7.95782 108.923 10.1812 108.076 12.0246C108.076 12.0246 107.974 8.03987 107.369 8.13916C107.245 8.16075 105.731 8.91193 105.731 8.91193C105.731 8.91193 107.585 12.7974 106.173 15.5949C106.173 15.5949 106.702 10.8244 105.139 9.18823L102.932 10.4575C102.932 10.4575 105.095 14.4552 103.629 17.7146C103.629 17.7146 104.005 12.711 102.464 10.764L100.455 12.2966C100.455 12.2966 102.49 16.2382 101.25 18.9407C101.25 18.9407 101.086 13.1169 100.022 12.6765C100.022 12.6765 98.256 14.1918 97.9955 14.8351C97.9955 14.8351 99.3863 17.6931 98.5254 19.2041C98.5254 19.2041 97.9955 15.3186 97.5584 15.3186C97.5584 15.3186 95.7923 17.8873 95.6245 19.6358C95.6245 19.6358 95.6996 17.0152 97.1345 15.0596C96.1248 15.2453 95.1929 15.7166 94.4545 16.4152C94.4545 16.4152 94.7282 14.5976 97.5452 14.4379C97.5452 14.4379 98.9934 12.4909 99.3819 12.37C99.3819 12.37 96.5517 12.1412 94.8386 12.8837C94.8386 12.8837 96.3486 11.1569 99.8985 11.9469L101.881 10.3625C101.881 10.3625 98.1589 9.86601 96.5826 10.4143C96.5826 10.4143 98.3973 8.89899 102.415 10.0042L104.574 8.74355C104.574 8.74355 101.404 8.07439 99.5144 8.31183C99.5144 8.31183 101.51 7.25845 105.21 8.39818L106.755 7.72038C106.755 7.72038 104.429 7.28866 103.749 7.20232C103.069 7.11597 103.033 6.94762 103.033 6.94762C104.504 6.70749 106.015 6.87189 107.396 7.4225C107.396 7.4225 110.703 6.22665 110.645 6.02374Z" fill="#6C63FF"/>
<path opacity="0.1" d="M95 24C97.2091 24 99 23.5523 99 23C99 22.4477 97.2091 22 95 22C92.7909 22 91 22.4477 91 23C91 23.5523 92.7909 24 95 24Z" fill="#6C63FF"/>
</svg>
