<svg width="19" height="20" viewBox="0 0 19 20" fill="#ffffff" xmlns="http://www.w3.org/2000/svg">
<path d="M17.3883 0.95205C16.2503 -0.185941 14.4053 -0.185941 13.2673 0.95205L1.71485 12.5045C1.63568 12.5836 1.57852 12.6818 1.54867 12.7895L0.0294886 18.2741C-0.0329885 18.499 0.0305003 18.7398 0.19542 18.905C0.360592 19.0699 0.601394 19.1334 0.826261 19.0711L6.31084 17.5517C6.41859 17.5219 6.51673 17.4647 6.5959 17.3855L18.1481 5.83284C19.2843 4.69409 19.2843 2.85064 18.1481 1.71189L17.3883 0.95205ZM3.12577 12.9254L12.5806 3.47035L15.6298 6.51958L6.17475 15.9746L3.12577 12.9254ZM2.51668 14.1476L4.95278 16.5839L1.58307 17.5176L2.51668 14.1476ZM17.2324 4.91719L16.5457 5.60393L13.4962 2.55445L14.1832 1.8677C14.8153 1.2356 15.8402 1.2356 16.4723 1.8677L17.2324 2.62755C17.8635 3.26041 17.8635 4.28458 17.2324 4.91719Z" fill="inherit"/>
</svg>
