<svg width="22" height="22" viewBox="0 0 26 26" fill="#ffffff" xmlns="http://www.w3.org/2000/svg">
<path d="M22.1406 3.04688H17.5703V2.28516C17.5703 1.02512 16.5452 0 15.2852 0H10.7148C9.45481 0 8.42969 1.02512 8.42969 2.28516V3.04688H3.85938C2.59934 3.04688 1.57422 4.072 1.57422 5.33203V6.85547C1.57422 7.27614 1.91527 7.61719 2.33594 7.61719H3.15773L4.4977 23.9152C4.49785 23.9174 4.49805 23.9195 4.49825 23.9217C4.60601 25.1066 5.58441 26 6.77402 26H19.2259C20.4156 26 21.3939 25.1066 21.5017 23.9217C21.5019 23.9195 21.5021 23.9174 21.5023 23.9152L22.8423 7.61719H23.6641C24.0847 7.61719 24.4258 7.27614 24.4258 6.85547V5.33203C24.4258 4.072 23.4007 3.04688 22.1406 3.04688ZM9.95312 2.28516C9.95312 1.86514 10.2948 1.52344 10.7148 1.52344H15.2852C15.7052 1.52344 16.0469 1.86514 16.0469 2.28516V3.04688H9.95312V2.28516ZM19.9843 23.7863C19.9473 24.18 19.6216 24.4766 19.2259 24.4766H6.77402C6.37833 24.4766 6.05272 24.18 6.01565 23.7863L4.6863 7.61719H21.3137L19.9843 23.7863ZM22.9023 6.09375H22.1406H3.85938H3.09766V5.33203C3.09766 4.91202 3.43936 4.57031 3.85938 4.57031H9.19141H16.8086H22.1406C22.5606 4.57031 22.9023 4.91202 22.9023 5.33203V6.09375Z" fill="#inherit"/>
<path d="M13 9.14062C12.5793 9.14062 12.2383 9.48167 12.2383 9.90234V20.668C12.2383 21.0886 12.5793 21.4297 13 21.4297C13.4207 21.4297 13.7617 21.0886 13.7617 20.668V9.90234C13.7617 9.48167 13.4207 9.14062 13 9.14062Z" fill="#inherit"/>
<path d="M17.5703 9.14062C17.1496 9.14062 16.8086 9.48167 16.8086 9.90234V20.668C16.8086 21.0886 17.1496 21.4297 17.5703 21.4297C17.991 21.4297 18.332 21.0886 18.332 20.668V9.90234C18.332 9.48167 17.991 9.14062 17.5703 9.14062Z" fill="#inherit"/>
<path d="M8.42969 9.14062C8.00902 9.14062 7.66797 9.48167 7.66797 9.90234V20.668C7.66797 21.0886 8.00902 21.4297 8.42969 21.4297C8.85036 21.4297 9.19141 21.0886 9.19141 20.668V9.90234C9.19141 9.48167 8.85036 9.14062 8.42969 9.14062Z" fill="#inherit"/>
</svg>
