<svg width="970" height="650" viewBox="0 0 970 650" fill="none" xmlns="http://www.w3.org/2000/svg">
<path opacity="0.1" d="M311.36 486.477C334.249 530.505 389.627 540.314 445.627 540.314C590.627 540.314 718.127 540.314 892.123 509.301C967.127 495.932 997.88 466.109 1039.77 428.724C1125.01 352.544 1148.95 217.586 1095.24 116.107C1076.97 81.5731 1051.16 51.4195 1023.78 23.2737C975.104 -26.7548 919.855 -71.9651 855.611 -99.9973C809.803 -119.982 760.518 -130.755 711.086 -138.306C573.074 -159.311 429.867 -155.163 297.671 -112.776C239.673 -94.2003 181.885 -66.63 145.385 -18.6324C108.886 29.3651 100.014 101.797 138.54 148.977C154.476 168.494 176.602 181.966 198.343 194.931C230.35 213.998 262.935 233.13 288.899 259.686C315.713 287.113 343.389 332.606 325.005 369.032C305.287 408.081 288.481 442.567 311.36 486.477Z" fill="#6C63FF"/>
</svg>
